<?xml version="1.0" standalone="no"?> 
<!DOCTYPE svg PUBLIC "-//W3C//DTD SVG 1.1//EN" "http://www.w3.org/Graphics/SVG/1.1/DTD/svg11.dtd" >
<svg xmlns="http://www.w3.org/2000/svg">
<defs>
  <font id="mobileflat-icons" horiz-adv-x="200">
    <font-face font-family="mobileflat-icons"
      units-per-em="512" ascent="448"
      descent="64" />
    <missing-glyph horiz-adv-x="0" />
    <glyph glyph-name="accessibility"
      unicode="&#xF101;"
      horiz-adv-x="512" d=" M208 400C208 426.512 229.488 448 256 448S304 426.512 304 400C304 373.488 282.512 352 256 352S208 373.488 208 400z M320 288L484.8 359.08799999999997L472.91200000000003 388.8L272 320H240L39.087999999999994 388.8L27.199999999999996 359.08799999999997L192 288V160L126.368 -52.28800000000001L156.288 -63.632000000000005L249.15200000000002 144H262.86400000000003L355.72800000000007 -63.632000000000005L385.6480000000001 -52.28800000000001L320.0160000000001 160z" />
    <glyph glyph-name="add-circle-full-01"
      unicode="&#xF102;"
      horiz-adv-x="512" d=" M256.53504000000004 426.84159999999997C126.63552000000001 426.84159999999997 21.33504000000001 321.54112 21.33504000000001 191.64159999999998C21.33504000000001 61.74720000000002 126.63552000000001 -43.56096000000008 256.53504000000004 -43.56096000000008C386.42944000000006 -43.56096000000008 491.73760000000004 61.74719999999991 491.73760000000004 191.64159999999998C491.73760000000004 321.54112 386.42944000000006 426.84159999999997 256.53504000000004 426.84159999999997zM381.1456 181.39903999999996H266.77504V63.91039999999998C266.77504 58.255359999999996 262.19007999999997 53.67039999999997 256.53504 53.67039999999997S246.29503999999997 58.255359999999996 246.29503999999997 63.91039999999998V181.39904H131.92448000000002C126.26944 181.39904 121.68448000000001 185.98400000000004 121.68448000000001 191.63904000000002S126.26944 201.87904 131.92448000000002 201.87904H246.29504V319.36768C246.29504 325.02272 250.88 329.60768 256.53504000000004 329.60768S266.77504 325.02272 266.77504 319.36768V201.87904H381.1456C386.80064 201.87904 391.3856 197.29408000000004 391.3856 191.63904000000002S386.80064 181.39903999999996 381.1456 181.39903999999996z" />
    <glyph glyph-name="add-circle"
      unicode="&#xF103;"
      horiz-adv-x="512" d=" M256.53248 406.35904C374.92992 406.35904 471.25504 310.03391999999997 471.25504 191.63392C471.25504 73.23648000000003 374.92992 -23.086080000000038 256.53248 -23.086080000000038C138.13504 -23.086080000000038 41.812479999999994 73.23648000000003 41.812479999999994 191.63392C41.812479999999994 310.03391999999997 138.13504 406.35904 256.53248 406.35904M256.53248 426.83904C126.63552 426.83904 21.332479999999997 321.536 21.332479999999997 191.63392C21.332479999999997 61.744640000000004 126.63552 -43.56608 256.53248 -43.56608C386.42944000000006 -43.56608 491.73504 61.744640000000004 491.73504 191.63392C491.73504 321.536 386.42944000000006 426.83904 256.53248 426.83904L256.53248 426.83904z M381.1456 201.87648000000002H266.77504V319.36256000000003C266.77504 325.0176 262.19007999999997 329.60256 256.53504 329.60256C250.87999999999997 329.60256 246.29503999999997 325.0176 246.29503999999997 319.36256000000003V201.87648000000002H131.92192C126.26687999999999 201.87648000000002 121.68191999999999 197.29152000000002 121.68191999999999 191.63648S126.26687999999999 181.39648 131.92192 181.39648H246.29248V63.907839999999965C246.29248 58.25279999999998 250.87744 53.66784000000001 256.53248 53.66784000000001C262.18752 53.66784000000001 266.77248 58.25279999999998 266.77248 63.907839999999965V181.39648H381.14304000000004C386.79808 181.39648 391.38304000000005 185.98144000000002 391.38304000000005 191.63648S386.80064 201.87648000000002 381.1456 201.87648000000002z" />
    <glyph glyph-name="adjustments"
      unicode="&#xF104;"
      horiz-adv-x="528" d=" M496 448H32C18.848 448 0 429.152 0 416V-32C0 -45.15199999999999 18.848 -64 32 -64H496C509.152 -64 528 -45.15199999999999 528 -32V416C528 429.152 509.152 448 496 448zM512 -32C511.904 -36.54399999999998 500.544 -47.903999999999996 496 -48H32C27.456 -47.903999999999996 16.096 -36.54399999999998 16 -32V416C16.096 420.544 27.456 431.904 32 432H496C500.544 431.904 511.904 420.544 512 416V-32zM264 360C246.352 360 232 345.648 232 328S246.352 296 264 296S296 310.352 296 328S281.648 360 264 360zM264 312C255.184 312 248 319.18399999999997 248 328S255.184 344 264 344S280 336.81600000000003 280 328S272.816 312 264 312zM392 104C374.352 104 360 89.64800000000002 360 72S374.352 40 392 40S424 54.351999999999975 424 72S409.648 104 392 104zM392 56C383.184 56 376 63.184000000000026 376 72S383.184 88 392 88S408 80.81599999999997 408 72S400.816 56 392 56zM136 184C118.352 184 104 169.64800000000002 104 152S118.352 120 136 120S168 134.35199999999998 168 152S153.648 184 136 184zM136 136C127.184 136 120 143.18400000000003 120 152S127.184 168 136 168S152 160.81599999999997 152 152S144.816 136 136 136zM136 208C140.416 208 144 211.584 144 216V360C144 364.416 140.416 368 136 368S128 364.416 128 360V216C128 211.584 131.584 208 136 208zM136 96C131.584 96 128 92.416 128 88V40C128 35.584 131.584 32 136 32S144 35.584 144 40V88C144 92.416 140.416 96 136 96zM264 272C259.584 272 256 268.416 256 264V40C256 35.584 259.584 32 264 32S272 35.584 272 40V264C272 268.416 268.416 272 264 272zM392 128C396.416 128 400 131.584 400 136V360C400 364.416 396.416 368 392 368S384 364.416 384 360V136C384 131.584 387.584 128 392 128z" />
    <glyph glyph-name="air-play"
      unicode="&#xF105;"
      horiz-adv-x="512" d=" M85.33333333333333 405.3333333333333H426.66666666666663Q453.16266666666667 405.3333333333333 471.9146666666666 386.5813333333333T490.66666666666663 341.33333333333337V128Q490.66666666666663 101.50400000000002 471.9146666666666 82.75200000000007T426.66666666666663 64H373.3333333333333L341.3333333333333 106.66666666666669H426.66666666666663Q435.4986666666667 106.66666666666669 441.7493333333333 112.91733333333332T448 128V341.33333333333337Q448 350.16533333333336 441.7493333333333 356.416T426.66666666666663 362.6666666666667H85.33333333333333Q76.50133333333332 362.6666666666667 70.25066666666666 356.416T64 341.33333333333337V128Q64 119.168 70.25066666666666 112.91733333333332T85.33333333333333 106.66666666666669H170.66666666666666L138.66666666666666 64H85.33333333333333Q58.83733333333333 64 40.08533333333333 82.75200000000007T21.333333333333332 128.00000000000006V341.33333333333337Q21.333333333333332 367.82933333333335 40.08533333333333 386.58133333333336T85.33333333333333 405.33333333333337zM298.66666666666663 21.33333333333337L256 78.16533333333336L213.33333333333331 21.33333333333337H298.66666666666663zM128 -21.333333333333314L256 149.33333333333337L384 -21.333333333333314H128z" />
    <glyph glyph-name="alarm"
      unicode="&#xF106;"
      horiz-adv-x="512" d=" M256 384C132.288 384 32 283.712 32 160S132.288 -64 256 -64S480 36.28800000000001 480 160S379.712 384 256 384zM256 -20C156.59199999999998 -20 76 60.591999999999985 76 160S156.59199999999998 340 256 340C355.408 340 436 259.408 436 160S355.408 -20 256 -20zM467.392 304.416C475.408 318.448 480 334.688 480 352C480 405.024 437.024 448 384 448C353.088 448 325.6 433.392 308.048 410.704C373.98400000000004 397.088 430.656 358.11199999999997 467.408 304.416V304.416zM203.968 410.704C186.416 433.392 158.91199999999998 448 127.99999999999999 448C74.97599999999998 448 31.999999999999986 405.024 31.999999999999986 352C31.999999999999986 334.688 36.591999999999985 318.432 44.60799999999999 304.416C81.35999999999999 358.11199999999997 138.016 397.08799999999997 203.96800000000002 410.704z M256 160V288H224V128H352V160z" />
    <glyph glyph-name="alert-symbol-01"
      unicode="&#xF107;"
      horiz-adv-x="512" d=" M250.368 407.43936C368.92672 407.43936 465.38496 310.98368 465.38496 192.42496000000003S368.92672 -22.589439999999968 250.368 -22.589439999999968C131.80928 -22.589439999999968 35.35615999999998 73.86624 35.35615999999998 192.42496000000003S131.80928 407.43936 250.368 407.43936M250.368 433.03936C117.47840000000001 433.03936 9.756159999999982 325.30431999999996 9.756159999999982 192.42496000000003S117.48095999999998 -48.18943999999999 250.368 -48.18943999999999C383.26016000000004 -48.18943999999999 490.98496 59.545600000000036 490.98496 192.42496000000003S383.26016000000004 433.03936 250.368 433.03936L250.368 433.03936z M235.1744 101.63199999999995H265.56415999999996V63.29087999999996H235.1744V101.63199999999995zM238.07488 321.55647999999997H262.66880000000003V244.51072L257.23648000000003 127.67487999999997H243.47648L238.07488 244.51072V321.55647999999997z" />
    <glyph glyph-name="alert-symbol-full-01"
      unicode="&#xF108;"
      horiz-adv-x="512" d=" M250.37056 433.03936C117.94432 433.03936 10.59583999999999 325.67808 10.59583999999999 193.26463999999999S117.94431999999999 -46.510080000000016 250.37056 -46.510080000000016S490.14528000000007 60.85119999999995 490.14528000000007 193.26463999999999S382.7968 433.03936 250.37056 433.03936zM238.11584 321.9456H262.62528V245.1712L257.21344 128.74496H243.50463999999997L238.11584 245.1712V321.9456zM265.51295999999996 64.58368000000002H235.22816V102.79168000000004H265.51295999999996V64.58368000000002z" />
    <glyph glyph-name="all-cases-01"
      unicode="&#xF109;"
      horiz-adv-x="512" d=" M105.43104 301.1328H482.32448V282.28864H105.43104z M105.43104 194.71616H390.31808000000007V175.86944000000005H105.43104000000004z M105.43104 88.29951999999997H285.00991999999997V69.45279999999997H105.43104z M18.967039999999997 292.26496C18.967039999999997 277.5722416121814 30.877841612181484 265.66143999999997 45.57055999999999 265.66143999999997C60.26327838781851 265.66143999999997 72.17407999999999 277.5722416121814 72.17407999999999 292.26496C72.17407999999999 306.95767838781853 60.26327838781851 318.86848 45.57055999999999 318.86848C30.877841612181484 318.86848 18.967039999999997 306.95767838781853 18.967039999999997 292.26496z M18.967039999999997 185.2928C18.967039999999997 170.60008161218144 30.877841612181484 158.68928 45.57055999999999 158.68928C60.26327838781851 158.68928 72.17407999999999 170.60008161218144 72.17407999999999 185.2928C72.17407999999999 199.9855183878185 60.26327838781851 211.89631999999997 45.57055999999999 211.89631999999997C30.877841612181484 211.89631999999997 18.967039999999997 199.9855183878185 18.967039999999997 185.2928z M18.967039999999997 78.87872000000004C18.967039999999997 64.18600161218149 30.877841612181484 52.27520000000004 45.57055999999999 52.27520000000004C60.26327838781851 52.27520000000004 72.17407999999999 64.18600161218149 72.17407999999999 78.87872000000004C72.17407999999999 93.57143838781855 60.26327838781851 105.48223999999999 45.57055999999999 105.48223999999999C30.877841612181484 105.48223999999999 18.967039999999997 93.57143838781855 18.967039999999997 78.87872000000004z" />
    <glyph glyph-name="archive"
      unicode="&#xF10A;"
      horiz-adv-x="512" d=" M128 384H384L512 256V64Q512 37.50400000000002 493.24799999999993 18.752000000000066T448 0H64Q37.504 0 18.752 18.752000000000066T0 64V256zM469.3333333333333 64V213.33333333333334H375.6586666666667Q361.49333333333334 176.34133333333335 328.4053333333334 152.17066666666665T255.9786666666667 128Q229.8026666666667 128 205.1413333333334 139.15733333333333T162.13333333333338 169.7493333333333T134.63466666666673 213.33333333333334H42.62400000000008V64Q42.62400000000008 55.33866666666671 48.78933333333342 49.0026666666667T63.95733333333341 42.666666666666686H447.9573333333334Q456.78933333333345 42.666666666666686 463.0400000000001 48.91733333333332T469.29066666666677 64zM451.6693333333333 256L367.168 341.33333333333337H145.66400000000004L60.33066666666673 256H170.66666666666674Q170.66666666666674 234.83733333333333 181.99466666666675 215.168T213.24800000000008 183.08266666666668T256.00000000000006 170.66666666666669T298.75200000000007 183.08266666666668T330.0053333333334 215.168T341.33333333333337 256H451.6693333333334z" />
    <glyph glyph-name="attach-audio"
      unicode="&#xF10B;"
      horiz-adv-x="512" d=" M385.75104 234.21696L370.21952 231.71072C370.3424 230.9888 381.52704 158.10816 343.22687999999994 113.15456C323.13088 89.57184000000001 292.60799999999995 77.62176 252.47999999999993 77.62176C211.93727999999993 77.62176 180.8870399999999 89.67936000000003 160.22527999999994 113.49248C121.23647999999994 158.39999999999998 131.02079999999992 231.12703999999997 131.12831999999995 231.84896L115.55071999999993 234.07616000000002C115.07455999999993 230.81984 104.59903999999993 153.65120000000002 148.28799999999993 103.26272000000006C170.68799999999993 77.40672000000006 203.05919999999992 63.56480000000005 244.61311999999992 62.02880000000005V-22.66623999999996H159.22432V-38.39744000000002H345.54368000000005V-22.66623999999996H260.34176V62.19776000000002C301.40672 63.746560000000045 333.3760000000001 77.34528000000006 355.19232000000005 102.95552000000004C398.16192 153.37727999999998 386.28864000000004 230.94527999999997 385.75104 234.21696z M252.47744 406.66624C291.33056 406.66624 322.9312 375.0656 322.9312 336.21248V178.89535999999998C322.9312 140.02688 291.33056 108.42623999999995 252.47744 108.42623999999995C213.6064 108.42623999999995 182.00832 140.02943999999997 182.00832 178.89535999999998V336.21248C182.00832 375.06304 213.6064 406.66624 252.47744 406.66624M252.47744 422.39744C204.86656 422.39744 166.27455999999998 383.80544 166.27455999999998 336.21248V178.89535999999998C166.27455999999998 131.28447999999997 204.86656 92.69504 252.47744 92.69504C300.0704 92.69504 338.6624 131.28447999999997 338.6624 178.89535999999998V336.21248C338.6624 383.80544 300.0704 422.39744 252.47744 422.39744L252.47744 422.39744z" />
    <glyph glyph-name="attach-file"
      unicode="&#xF10C;"
      horiz-adv-x="512" d=" M444.34944 242.64704L311.75936 375.23456L311.66976000000005 375.12704H104.89856V-38.400000000000034H445.41440000000006L444.34944 242.64704zM123.34592 -19.95264000000003V356.68224H304.23040000000003L318.5536 342.3616L318.19264 254.06976000000003H406.84288000000004L426.96448000000004 233.94816000000003V-19.950080000000014H123.34592z M275.15392 403.95264L272.56064 422.4L65.69728 422.4L65.69728 8.870400000000018L84.14464 8.870400000000018L84.14464 403.95264z" />
    <glyph glyph-name="attach-photo"
      unicode="&#xF10D;"
      horiz-adv-x="512" d=" M197.97248 324.41344L162.2656 359.88736H89.0624L56.14848 324.41344H25.60256V13.86239999999998H484.48256000000003V324.41344H197.97248zM469.68064 28.664319999999975H40.40448V309.61152H62.27456L95.18848 345.08544H155.82976L192.0128 309.61152H233.76127999999997H469.67807999999997V28.664319999999975z M252.58496 252.88704C305.6384 252.88704 348.80256 209.72288 348.80256 156.66944S305.6384 60.451840000000004 252.58496 60.451840000000004S156.36991999999998 103.61599999999999 156.36991999999998 156.66944S199.53152 252.88704 252.58496 252.88704M252.58496 267.68896C191.27808 267.68896 141.56544 217.98911999999999 141.56544 156.66944C141.56544 95.36256000000003 191.27808000000002 45.649920000000066 252.58496 45.649920000000066C313.90464000000003 45.649920000000066 363.60447999999997 95.36256000000009 363.60447999999997 156.66944C363.60447999999997 217.98911999999999 313.90464000000003 267.68896 252.58496 267.68896L252.58496 267.68896z M201.39775999999998 158.52031999999997C201.39775999999998 130.25041005346117 224.3150500534612 107.33311999999995 252.58496 107.33311999999995C280.85486994653877 107.33311999999995 303.77216 130.25041005346117 303.77216 158.52031999999997C303.77216 186.79022994653877 280.85486994653877 209.70752 252.58496 209.70752C224.3150500534612 209.70752 201.39775999999998 186.79022994653877 201.39775999999998 158.52031999999997z M453.64992 277.54751999999996C453.64992 268.0064 445.91616000000005 260.27264 436.37504 260.27264C426.84672 260.27264 419.11552000000006 268.0064 419.11552000000006 277.54751999999996C419.11552000000006 287.07328 426.84928 294.80704000000003 436.37504 294.80704000000003C445.91616000000005 294.8096 453.64992 287.07583999999997 453.64992 277.54751999999996z M160.5248 294.8096H93.60896000000001C84.06784000000002 294.8096 76.33408 287.07583999999997 76.33408 277.55008C76.33408 268.00896 84.06784 260.2751999999999 93.60896000000001 260.2751999999999H160.5248C170.06592 260.2751999999999 177.79968000000002 268.00896 177.79968000000002 277.55008C177.79968000000002 287.07583999999997 170.06592 294.8096 160.5248 294.8096z" />
    <glyph glyph-name="attach-video"
      unicode="&#xF10E;"
      horiz-adv-x="512" d=" M363.36896 351.10144V224.47104H154.40128V351.10144H363.36896M380.51584 368.24832000000004H137.25696V207.32416H380.51584V368.24832000000004L380.51584 368.24832000000004z M363.36896 164.75135999999998V38.12095999999997H154.40128V164.75135999999998H363.36896M380.51584 181.9008H137.25696V20.97664000000003H380.51584V181.9008L380.51584 181.9008z M395.52 368.24832000000004H454.45632V319.95904H395.52z M395.52 296.45056H454.45632V248.16128H395.52z M395.52 217.21599999999998H454.45632V168.92415999999997H395.52z M395.52 141.06624H454.45632V92.77695999999997H395.52z M395.52 69.26591999999994H454.45632V20.976639999999975H395.52z M60.09856 368.24832000000004H119.03743999999999V319.95904H60.09855999999999z M60.09856 296.45056H119.03743999999999V248.16128H60.09855999999999z M60.09856 217.21599999999998H119.03743999999999V168.92415999999997H60.09855999999999z M60.09856 141.06624H119.03743999999999V92.77695999999997H60.09855999999999z M60.09856 69.26591999999994H119.03743999999999V20.976639999999975H60.09855999999999z M470.53824000000003 405.25311999999997V-20.480000000000018H44.024319999999996V405.25311999999997H470.53824000000003M487.68256 422.4H26.88V-37.629440000000045H487.68256V422.4L487.68256 422.4z" />
    <glyph glyph-name="attached"
      unicode="&#xF10F;"
      horiz-adv-x="512" d=" M106.39872 -22.758399999999995C86.32575999999999 -22.758399999999995 63.67999999999999 -15.741439999999955 41.81503999999999 6.123520000000042C24.350719999999992 23.58528000000007 15.646719999999991 44.011520000000075 15.94367999999999 66.82624000000004C16.59903999999999 117.43744000000004 61.88031999999999 161.66144000000003 65.00095999999999 164.65152L247.38559999999998 347.0336C249.74336 349.45536 308.10112 408.54016 375.48288 408.9728C375.73120000000006 408.9728 375.98208 408.97536 376.22784 408.97536C406.4128 408.97536 433.5104 397.17632000000003 456.79104 373.89568C483.56608 347.12064000000004 496.76800000000003 317.18144 496.03328000000005 284.91008C494.69440000000003 225.93280000000001 447.10400000000004 180.6592 443.18464 177.03424L259.0464 -7.106560000000059C255.04512 -11.10784000000001 248.5632 -11.10784000000001 244.56448 -7.106560000000059C240.56576 -3.10784000000001 240.56576 3.376639999999952 244.56448 7.372799999999984L429.18912 191.98464C429.632 192.39168 474.46016 234.11455999999998 475.56095999999997 285.4912C476.12672 311.9104 464.93951999999996 336.7808 442.30911999999995 359.41376C422.85312 378.86976 400.2918399999999 388.65408 375.61343999999997 388.49024C316.69759999999997 388.11392 262.49727999999993 333.1968 261.95968 332.64384L79.2064 149.89824C78.79168000000001 149.50400000000002 36.93056000000001 109.10976 36.42112 66.49599999999998C36.21376 49.19807999999995 42.71360000000001 34.18879999999996 56.29696 20.605439999999987C109.74207999999999 -32.839680000000044 168.38400000000001 23.66719999999998 170.85696000000002 26.099199999999996L341.85983999999996 197.07135999999997C341.97759999999994 197.17631999999998 356.9075199999999 210.66239999999996 357.42719999999997 228.60288C357.74463999999995 239.48288 352.61439999999993 250.29119999999998 342.18495999999993 260.72064C311.4675199999999 291.43808 275.1718399999999 261.69088 271.7055999999999 258.71871999999996L124.2393599999999 111.25504000000001C120.24063999999991 107.25376000000006 113.75871999999991 107.25376000000006 109.75743999999992 111.25504000000001C105.75871999999993 115.25376000000006 105.75871999999993 121.73824000000002 109.75743999999992 125.7344L257.9404799999999 273.88928C276.32895999999994 290.10432000000003 320.6220799999999 311.25248 356.6643199999999 275.20256C371.31519999999995 260.55424000000005 378.45503999999994 244.5952 377.89183999999995 227.76832000000002C377.03935999999993 202.33216 358.40767999999997 184.44288 355.65056 181.93152000000003L185.27999999999997 11.560960000000023C184.46591999999998 10.75968000000006 166.40255999999997 -6.832639999999969 140.03711999999996 -16.496639999999957C130.36032 -20.04224000000005 118.87616 -22.758399999999995 106.39872 -22.758399999999995z" />
    <glyph glyph-name="back"
      unicode="&#xF110;"
      horiz-adv-x="512" d=" M366.31807999999995 -47.84127999999998C363.69919999999996 -47.84127999999998 361.0752 -46.84032000000002 359.0784 -44.840959999999995L121.43871999999999 192.79616000000001L359.08352 430.44096C363.07968 434.43968 369.56928 434.43968 373.56288 430.44096C377.56415999999996 426.43968 377.56415999999996 419.95776 373.56288 415.95904L150.4 192.79616000000001L373.55520000000007 -30.361600000000067C377.55648 -34.36032000000006 377.55648 -40.84480000000002 373.55520000000007 -44.84096000000005C371.56095999999997 -46.84288000000004 368.93696000000006 -47.84127999999998 366.31807999999995 -47.84127999999998z" />
    <glyph glyph-name="ban"
      unicode="&#xF111;"
      horiz-adv-x="512" d=" M256 426.6666666666667Q303.82933333333335 426.6666666666667 347.24266666666665 408.0853333333333T422.08 358.08000000000004T472.0853333333333 283.24266666666665T490.66666666666663 192T472.0853333333333 100.75733333333335T422.08 25.920000000000016T347.24266666666665 -24.085333333333324T256 -42.66666666666663T164.75733333333332 -24.085333333333324T89.91999999999999 25.920000000000016T39.91466666666666 100.75733333333335T21.333333333333332 192T39.91466666666666 283.24266666666665T89.91999999999999 358.08000000000004T164.75733333333332 408.0853333333333T256 426.6666666666667zM375.82933333333335 42.0053333333334L106.00533333333335 311.82933333333335Q85.99466666666669 286.65600000000006 75.00800000000001 256T64.00000000000001 192Q64.00000000000001 153.0026666666667 79.25333333333334 117.4186666666667T120.17066666666668 56.17066666666665T181.4186666666667 15.25333333333333T256 0Q289.49333333333334 0 320.1706666666667 10.922666666666714T375.8293333333334 42.0053333333334zM256 384Q222.50666666666666 384 191.82933333333335 373.07733333333334T136.17066666666668 341.99466666666666L405.9946666666666 72.17066666666665Q426.1546666666666 97.17333333333335 437.0773333333333 127.82933333333335T448 192Q448 230.99733333333333 432.74666666666667 266.58133333333336T391.82933333333335 327.82933333333335T330.5813333333333 368.74666666666667T256 384z" />
    <glyph glyph-name="bar-graph-2"
      unicode="&#xF112;"
      horiz-adv-x="512" d=" M256 426.6666666666667Q282.496 426.6666666666667 301.248 407.9146666666667T320 362.6666666666667V21.33333333333337Q320 -5.1626666666666665 301.248 -23.91466666666662T256 -42.66666666666663T210.75199999999998 -23.91466666666662T192 21.33333333333337V362.6666666666667Q192 389.16266666666667 210.75199999999998 407.9146666666667T256 426.6666666666667zM85.33333333333333 170.66666666666669Q111.82933333333332 170.66666666666669 130.58133333333333 151.91466666666668T149.33333333333331 106.66666666666669V21.33333333333337Q149.33333333333331 -5.1626666666666665 130.58133333333333 -23.91466666666662T85.33333333333333 -42.66666666666663T40.08533333333333 -23.91466666666662T21.333333333333332 21.33333333333337V106.66666666666669Q21.333333333333332 133.16266666666672 40.08533333333333 151.91466666666668T85.33333333333333 170.66666666666669zM85.33333333333333 128Q76.50133333333332 128 70.25066666666666 121.74933333333337T64 106.66666666666669V21.33333333333337Q64 12.50133333333332 70.25066666666666 6.250666666666689T85.33333333333333 0T100.416 6.250666666666689T106.66666666666666 21.33333333333337V106.66666666666669Q106.66666666666666 115.49866666666668 100.416 121.74933333333337T85.33333333333333 128zM256 384Q247.168 384 240.91733333333332 377.7493333333333T234.66666666666666 362.6666666666667V21.33333333333337Q234.66666666666666 12.50133333333332 240.91733333333332 6.250666666666689T256 0T271.0826666666667 6.250666666666689T277.3333333333333 21.33333333333337V362.6666666666667Q277.3333333333333 371.4986666666667 271.0826666666667 377.7493333333333T256 384zM426.66666666666663 298.6666666666667Q453.16266666666667 298.6666666666667 471.9146666666666 279.9146666666667T490.66666666666663 234.66666666666669V21.33333333333337Q490.66666666666663 -5.1626666666666665 471.9146666666666 -23.91466666666662T426.66666666666663 -42.66666666666663T381.4186666666667 -23.91466666666662T362.66666666666663 21.33333333333337V234.66666666666669Q362.66666666666663 261.1626666666667 381.4186666666667 279.9146666666667T426.66666666666663 298.6666666666667zM426.66666666666663 256Q417.83466666666664 256 411.58399999999995 249.74933333333337T405.3333333333333 234.66666666666669V21.33333333333337Q405.3333333333333 12.50133333333332 411.58399999999995 6.250666666666689T426.66666666666663 0T441.7493333333333 6.250666666666689T448 21.33333333333337V234.66666666666669Q448 243.49866666666668 441.7493333333333 249.74933333333337T426.66666666666663 256z" />
    <glyph glyph-name="bar-graph"
      unicode="&#xF113;"
      horiz-adv-x="512" d=" M426.66666666666663 426.6666666666667Q453.16266666666667 426.6666666666667 471.9146666666666 407.9146666666667T490.66666666666663 362.6666666666667V21.33333333333337Q490.66666666666663 -5.1626666666666665 471.9146666666666 -23.91466666666662T426.66666666666663 -42.66666666666663T381.4186666666667 -23.91466666666662T362.66666666666663 21.33333333333337V362.6666666666667Q362.66666666666663 389.16266666666667 381.4186666666667 407.9146666666667T426.66666666666663 426.6666666666667zM85.33333333333333 170.66666666666669Q111.82933333333332 170.66666666666669 130.58133333333333 151.91466666666668T149.33333333333331 106.66666666666669V21.33333333333337Q149.33333333333331 -5.1626666666666665 130.58133333333333 -23.91466666666662T85.33333333333333 -42.66666666666663T40.08533333333333 -23.91466666666662T21.333333333333332 21.33333333333337V106.66666666666669Q21.333333333333332 133.16266666666672 40.08533333333333 151.91466666666668T85.33333333333333 170.66666666666669zM85.33333333333333 128Q76.50133333333332 128 70.25066666666666 121.74933333333337T64 106.66666666666669V21.33333333333337Q64 12.50133333333332 70.25066666666666 6.250666666666689T85.33333333333333 0T100.416 6.250666666666689T106.66666666666666 21.33333333333337V106.66666666666669Q106.66666666666666 115.49866666666668 100.416 121.74933333333337T85.33333333333333 128zM256 298.6666666666667Q282.496 298.6666666666667 301.248 279.9146666666667T320 234.66666666666669V21.33333333333337Q320 -5.1626666666666665 301.248 -23.91466666666662T256 -42.66666666666663T210.75199999999998 -23.91466666666662T192 21.33333333333337V234.66666666666669Q192 261.1626666666667 210.75199999999998 279.9146666666667T256 298.6666666666667zM256 256Q247.168 256 240.91733333333332 249.74933333333337T234.66666666666666 234.66666666666669V21.33333333333337Q234.66666666666666 12.50133333333332 240.91733333333332 6.250666666666689T256 0T271.0826666666667 6.250666666666689T277.3333333333333 21.33333333333337V234.66666666666669Q277.3333333333333 243.49866666666668 271.0826666666667 249.74933333333337T256 256zM426.66666666666663 384Q417.83466666666664 384 411.58399999999995 377.7493333333333T405.3333333333333 362.6666666666667V21.33333333333337Q405.3333333333333 12.50133333333332 411.58399999999995 6.250666666666689T426.66666666666663 0T441.7493333333333 6.250666666666689T448 21.33333333333337V362.6666666666667Q448 371.4986666666667 441.7493333333333 377.7493333333333T426.66666666666663 384z" />
    <glyph glyph-name="bookmark"
      unicode="&#xF114;"
      horiz-adv-x="512" d=" M96 448V-64L256 96L416 -64V448z" />
    <glyph glyph-name="bookmarks"
      unicode="&#xF115;"
      horiz-adv-x="512" d=" M128 384V-64L288 96L448 -64V384zM384 448H64V0L96 32V416H384z" />
    <glyph glyph-name="box"
      unicode="&#xF116;"
      horiz-adv-x="512" d=" M21.333333333333332 341.33333333333337L256 448L490.66666666666663 341.33333333333337V42.666666666666686L256 -64L21.333333333333332 42.666666666666686V341.33333333333337zM234.66666666666666 220.99200000000002L64 298.496V70.16533333333336L234.66666666666666 -7.509333333333245V220.99200000000008zM448 70.16533333333336V298.49600000000004L277.3333333333333 220.99200000000005V-7.509333333333245zM413.3333333333333 329.664L256 401.17333333333335L98.66666666666666 329.664L256 258.1546666666667z" />
    <glyph glyph-name="briefcase"
      unicode="&#xF117;"
      horiz-adv-x="608" d=" M600 160C595.584 160 592 156.416 592 152V-40C592 -44.416 588.416 -48 584 -48H24C19.584 -48 16 -44.416 16 -40V152C16 156.416 12.416 160 8 160S0 156.416 0 152V-40C0 -53.23199999999997 10.768 -64 24 -64H584C597.232 -64 608 -53.23199999999997 608 -40V152C608 156.416 604.416 160 600 160zM408 368C412.416 368 416 371.584 416 376V424C416 437.23199999999997 405.23199999999997 448 392 448H216C202.768 448 192 437.23199999999997 192 424V376C192 371.584 195.584 368 200 368S208 371.584 208 376V424C208 428.416 211.584 432 216 432H392C396.416 432 400 428.416 400 424V376C400 371.584 403.584 368 408 368zM584 336H24C10.768 336 0 325.23199999999997 0 312V232.672C0 188.224 151.296 128.67200000000003 306 128.67200000000003C458.688 128.67200000000003 608 188.22400000000005 608 232.67200000000003V312C608 325.232 597.232 336 584 336zM592 232.672C592 204.448 456.688 144.67200000000003 306 144.67200000000003C153.2 144.67200000000003 16 204.43200000000002 16 232.67200000000003V312C16 316.41600000000005 19.584 320 24 320H584C588.416 320 592 316.41600000000005 592 312V232.67200000000003zM306 80C321.088 80 336.76800000000003 80.62400000000002 352.624 81.856C357.024 82.19200000000001 360.32000000000005 86.048 359.968 90.464C359.632 94.86399999999998 355.93600000000004 98.24000000000001 351.36 97.80799999999999C319.136 95.29599999999999 288.81600000000003 95.40800000000002 256.656 98.12799999999999C252.43200000000002 98.56 248.38400000000001 95.23199999999997 248.01600000000002 90.832S250.912 82.56 255.312 82.19200000000001C272.528 80.73599999999999 289.584 80 306 80z" />
    <glyph glyph-name="briefcase2"
      unicode="&#xF118;"
      horiz-adv-x="512" d=" M213.33333333333331 405.3333333333333H298.66666666666663Q325.16266666666667 405.3333333333333 343.9146666666666 386.5813333333333T362.66666666666663 341.33333333333337V320H426.66666666666663Q453.16266666666667 320 471.9146666666666 301.24800000000005T490.66666666666663 256V42.666666666666686Q490.66666666666663 16.170666666666648 471.9146666666666 -2.581333333333305T426.66666666666663 -21.333333333333314H85.33333333333333Q58.83733333333333 -21.333333333333314 40.08533333333333 -2.581333333333305T21.333333333333332 42.666666666666686V256Q21.333333333333332 282.496 40.08533333333333 301.24800000000005T85.33333333333333 320H149.33333333333331V341.33333333333337Q149.33333333333331 367.82933333333335 168.08533333333332 386.5813333333333T213.33333333333331 405.3333333333333zM106.66666666666666 21.33333333333337V277.33333333333337H85.33333333333333Q76.50133333333332 277.33333333333337 70.25066666666666 271.0826666666667T64 256V42.666666666666686Q64 33.834666666666635 70.25066666666666 27.584000000000003T85.33333333333333 21.33333333333337H106.66666666666666zM362.66666666666663 21.33333333333337V277.33333333333337H149.33333333333331V21.33333333333337H362.66666666666663zM426.66666666666663 277.33333333333337H405.3333333333333V21.33333333333337H426.66666666666663Q435.4986666666667 21.33333333333337 441.7493333333333 27.584000000000003T448 42.666666666666686V256Q448 264.832 441.7493333333333 271.0826666666667T426.66666666666663 277.33333333333337zM298.66666666666663 362.6666666666667H213.33333333333331Q204.50133333333332 362.6666666666667 198.25066666666663 356.416T192 341.33333333333337V320H320V341.33333333333337Q320 350.16533333333336 313.7493333333333 356.416T298.66666666666663 362.6666666666667z" />
    <glyph glyph-name="bubble"
      unicode="&#xF119;"
      horiz-adv-x="512" d=" M256 336C260.416 336 264 332.416 264 328S260.4 320 256 320C170.768 320 96 275.13599999999997 96 224C96 219.584 92.416 216 88 216S80 219.584 80 224C80 284.704 160.59199999999998 336 256 336zM256 416C114.608 416 0 330.032 0 224C0 157.96800000000002 44.464 99.74400000000003 112.128 65.18399999999997C112.128 64.75199999999995 112 64.46399999999994 112 63.99999999999994C112 35.311999999999955 90.576 4.4319999999999595 81.152 -11.776000000000067C81.168 -11.776000000000067 81.184 -11.776000000000067 81.184 -11.776000000000067C80.432 -13.536000000000058 80 -15.472000000000094 80 -17.504000000000076C80 -25.504000000000076 86.48 -32.00000000000006 94.496 -32.00000000000006C96 -32.00000000000006 98.64 -31.60000000000008 98.576 -31.776000000000067C148.576 -23.58400000000006 195.68 22.35199999999992 206.624 35.66399999999993C222.608 33.311999999999955 239.088 31.999999999999943 256 31.999999999999943C397.36 31.999999999999943 512 117.96799999999996 512 223.99999999999994S397.376 415.99999999999994 256 415.99999999999994zM256 64C241.328 64 226.272 65.12 211.264 67.31200000000001C209.71200000000002 67.56799999999998 208.16 67.64800000000002 206.62400000000002 67.64800000000002C197.12000000000003 67.64800000000002 188.01600000000002 63.424000000000035 181.88800000000003 55.96800000000002C175.04000000000002 47.632000000000005 155.55200000000002 29.024 132.52800000000002 15.343999999999994C138.76800000000003 29.663999999999987 143.64800000000002 45.71199999999999 143.984 62.25599999999997C144.08 63.27999999999997 144.12800000000001 64.32 144.12800000000001 65.19999999999999C144.12800000000001 77.23199999999997 137.39200000000002 88.22399999999999 126.68800000000002 93.69599999999997C67.39200000000002 123.96799999999996 32.000000000000014 172.688 32.000000000000014 223.99999999999997C32.000000000000014 312.224 132.48000000000002 384 256 384C379.488 384 480 312.224 480 223.99999999999997S379.504 64 256 64z" />
    <glyph glyph-name="calendar"
      unicode="&#xF11A;"
      horiz-adv-x="512" d=" M469.344 400H400V432C400 440.848 392.848 448 384 448S368 440.848 368 432V400H272V432C272 440.848 264.832 448 256 448S240 440.848 240 432V400H144V432C144 440.848 136.832 448 128 448S112 440.848 112 432V400H42.672C19.103999999999996 400 0 380.91200000000003 0 357.344V-21.32800000000003C0 -44.896000000000015 19.104 -64 42.672 -64H469.34400000000005C492.91200000000003 -64 512 -44.896000000000015 512 -21.327999999999975V357.34400000000005C512 380.91200000000003 492.912 400.00000000000006 469.344 400.00000000000006zM480 -21.327999999999975C480 -27.21599999999995 475.216 -32 469.344 -32H42.67199999999997C36.78399999999997 -32 31.999999999999968 -27.216000000000008 31.999999999999968 -21.327999999999975V357.34400000000005C31.999999999999968 363.21600000000007 36.78399999999997 368.00000000000006 42.67199999999997 368.00000000000006H111.99999999999997V336.00000000000006C111.99999999999997 327.15200000000004 119.16799999999998 320.00000000000006 127.99999999999997 320.00000000000006S143.99999999999997 327.15200000000004 143.99999999999997 336.00000000000006V368.00000000000006H239.99999999999997V336.00000000000006C239.99999999999997 327.15200000000004 247.16799999999998 320.00000000000006 255.99999999999997 320.00000000000006S272 327.15200000000004 272 336.00000000000006V368.00000000000006H368V336.00000000000006C368 327.15200000000004 375.152 320.00000000000006 384 320.00000000000006S400 327.15200000000004 400 336.00000000000006V368.00000000000006H469.344C475.216 368.00000000000006 480 363.21600000000007 480 357.34400000000005V-21.327999999999975zM112 256H176V208H112zM112 176H176V128H112zM112 96H176V48H112zM224 96H288V48H224zM224 176H288V128H224zM224 256H288V208H224zM336 96H400V48H336zM336 176H400V128H336zM336 256H400V208H336z" />
    <glyph glyph-name="camera"
      unicode="&#xF11B;"
      horiz-adv-x="512" d=" M256 287.98400000000004C185.296 287.98400000000004 128 230.68800000000002 128 159.98400000000004S185.296 31.984000000000037 256 31.984000000000037C326.688 31.984000000000037 384 89.29600000000005 384 159.98400000000004S326.688 287.98400000000004 256 287.98400000000004zM328.88 97.50400000000002C294.384 57.24800000000005 233.792 52.59200000000004 193.536 87.10400000000004C153.264 121.60000000000002 148.624 182.20800000000003 183.136 222.44800000000004C217.61599999999999 262.72 278.224 267.36 318.48 232.84800000000004C358.72 198.36800000000005 363.37600000000003 137.74400000000003 328.88 97.50400000000002zM256 223.984C260.416 223.984 264 220.4 264 215.984S260.416 207.984 256 207.984C229.488 207.984 208.016 186.49599999999998 208 160V159.96800000000002C208 155.56800000000004 204.416 151.96800000000002 200 151.96800000000002S192 155.56800000000004 192 159.96800000000002V160C192.016 195.328 220.656 223.984 256 223.984zM471.872 303.328L402.528 314.896L380.56 369.84000000000003C373.216 388.16 355.712 400 336 400H176C156.288 400 138.784 388.16 131.424 369.824L109.47200000000001 314.896L40.144000000000005 303.328C16.880000000000006 299.472 7.105427357601002e-15 279.568 7.105427357601002e-15 256V16C7.105427357601002e-15 -10.463999999999999 21.53600000000001 -32 48.00000000000001 -32H464C490.464 -32 512 -10.463999999999999 512 16V256C512 279.568 495.12 299.472 471.872 303.328zM480 16C480 7.151999999999987 472.848 0 464 0H48C39.152 0 32 7.151999999999987 32 16V256C32 263.824 37.664 270.496 45.376 271.776L132.48 286.288L161.136 357.93600000000004C163.584 364 169.456 368 176 368H336C342.528 368 348.4 364.016 350.848 357.93600000000004L379.504 286.288L466.624 271.776C474.336 270.496 480 263.824 480 256V16z" />
    <glyph glyph-name="camera2"
      unicode="&#xF11C;"
      horiz-adv-x="512" d=" M170.66666666666666 405.3333333333333H341.3333333333333L384 341.33333333333337H448Q474.496 341.33333333333337 493.24799999999993 322.24T512 276.65066666666667V42.32533333333339Q512 15.829333333333352 493.24799999999993 -2.7519999999999527T448 -21.333333333333258H64Q37.504 -21.333333333333258 18.752 -2.581333333333191T0 42.66666666666674V276.9920000000001Q0 303.48800000000006 18.752 322.41066666666677T64 341.3333333333334H128zM256 277.33333333333337Q277.67466666666667 277.33333333333337 297.408 268.8426666666667T331.4133333333333 246.10133333333334T354.1546666666666 212.096T362.64533333333327 170.688T354.1546666666666 129.27999999999997T331.4133333333333 95.27466666666663T297.40799999999996 72.5333333333333T255.99999999999994 64.04266666666666T214.59199999999993 72.5333333333333T180.58666666666662 95.27466666666663T157.8453333333333 129.27999999999997T149.35466666666662 170.688T157.8453333333333 212.09599999999998T180.58666666666662 246.1013333333333T214.59199999999993 268.8426666666667T255.99999999999994 277.3333333333333zM256 234.66666666666669Q229.50399999999996 234.66666666666669 210.75199999999998 215.91466666666668T192 170.66666666666669T210.75199999999998 125.4186666666667T256 106.66666666666669T301.248 125.4186666666667T320 170.66666666666669T301.248 215.91466666666668T256 234.66666666666669zM361.1733333333333 298.6666666666667L319.33866666666665 362.6666666666667H193.51466666666664L150.84799999999998 298.6666666666667H64.02133333333332Q55.189333333333316 298.6666666666667 48.938666666666656 292.3306666666667T42.68799999999999 276.992V42.666666666666686Q42.68799999999999 33.834666666666635 48.938666666666656 27.584000000000003T64.02133333333332 21.33333333333337H448.02133333333325Q457.02399999999994 21.33333333333337 463.18933333333325 27.413333333333355T469.3546666666666 42.32533333333339V276.6506666666667Q469.3546666666666 285.65333333333336 463.0186666666666 292.1600000000001T448.02133333333325 298.66666666666674H361.1946666666666z" />
    <glyph glyph-name="cancel"
      unicode="&#xF11D;"
      horiz-adv-x="512" d=" M270.0544 191.57247999999998L481.69216 403.21024C485.69344 407.21152 485.69344 413.69344 481.69216 417.69216C477.69599999999997 421.69088 471.20640000000003 421.69088 467.2128 417.69216L255.57248 206.0544L43.93472 417.69472C39.93344 421.69344 33.45152 421.69344 29.452799999999996 417.69472C25.45408 413.69344 25.45408 407.21152 29.452799999999996 403.2128L241.09312 191.57504L32.01279999999999 -17.50527999999997C28.01407999999999 -21.50400000000002 28.01407999999999 -27.98847999999998 32.01279999999999 -31.984640000000013C34.01215999999999 -33.98400000000004 36.63359999999999 -34.98496 39.255039999999994 -34.98496C41.87391999999999 -34.98496 44.49535999999999 -33.98400000000004 46.49727999999999 -31.984640000000013L255.57504 177.09312L464.65536000000003 -31.984640000000013C466.65216000000004 -33.98400000000004 469.27616 -34.98496 471.89504 -34.98496S477.13792 -33.98400000000004 479.13472 -31.984640000000013C483.13599999999997 -27.985919999999965 483.13599999999997 -21.501440000000002 479.13472 -17.50527999999997L270.0544 191.57247999999998z" />
    <glyph glyph-name="chat"
      unicode="&#xF11E;"
      horiz-adv-x="672" d=" M570.432 223.632C566.208 224.94400000000002 561.7280000000001 222.64000000000001 560.384 218.43200000000002C559.056 214.22400000000002 561.376 209.728 565.5840000000001 208.38400000000001C628.1120000000001 188.464 656 158.752 656 112C656 70.416 618.064 38.144000000000005 595.472 22.591999999999985C593.2959999999999 21.087999999999965 592 18.639999999999986 592 16V-45.168000000000006C580.32 -40.81600000000003 559.952 -30.927999999999997 541.984 -10.687999999999988C540.1120000000001 -8.591999999999985 537.264 -7.632000000000005 534.496 -8.144000000000005C529.936 -9.024000000000001 525.28 -10.271999999999991 520.56 -11.536000000000001C512.4 -13.728000000000009 503.9839999999999 -16 495.99999999999994 -16C454.9119999999999 -16 426.14399999999995 -7.168000000000006 396.73599999999993 14.447999999999979C393.15199999999993 17.072000000000003 388.17599999999993 16.287999999999954 385.5519999999999 12.73599999999999C382.9279999999999 9.168000000000006 383.6959999999999 4.175999999999988 387.24799999999993 1.551999999999964C419.67999999999995 -22.28800000000001 451.1839999999999 -32.00000000000006 495.99999999999994 -32.00000000000006C506.09599999999995 -32.00000000000006 515.568 -29.456000000000074 524.7199999999999 -26.992000000000075C527.5679999999999 -26.208000000000084 530.3999999999999 -25.440000000000055 533.1999999999999 -24.78400000000005C563.1039999999999 -56.36800000000005 596.9279999999999 -63.55200000000002 598.4 -63.84000000000003C598.928 -63.952000000000055 599.456 -64 600 -64C601.824 -64 603.632 -63.375999999999976 605.056 -62.19200000000001C606.928 -60.672000000000025 608 -58.400000000000034 608 -56V11.824000000000012C649.312 41.28000000000003 672 76.73599999999999 672 112C672 166.096 639.728 201.56799999999998 570.432 223.632zM528 232C528 355.13599999999997 415.712 448 266.832 448C117.19999999999999 448 0 353.104 0 231.968C0 159.344 51.376 107.31200000000001 96 75.82399999999996V-30.352000000000032C96 -33.07200000000006 97.376 -35.58400000000006 99.648 -37.07200000000006C100.976 -37.92000000000007 102.47999999999999 -38.35200000000003 104 -38.35200000000003C105.104 -38.35200000000003 106.224 -38.11200000000002 107.28 -37.648000000000025C109.616 -36.608000000000004 164.224 -11.79200000000003 210.94400000000002 39.29599999999999C231.18400000000003 35.536 254.08 31.920000000000016 274.848 31.920000000000016C426.256 31.920000000000016 528 112.33600000000001 528 232.00000000000003zM274.832 47.920000000000016C253.87199999999999 47.920000000000016 230.048 51.936000000000035 209.504 55.855999999999995C206.736 56.351999999999975 203.88799999999998 55.408000000000015 202.016 53.31200000000001C169.216 16.319999999999993 130.672 -7.183999999999969 111.99999999999999 -17.312000000000012V80C111.99999999999999 82.63999999999999 110.70399999999998 85.08800000000002 108.52799999999999 86.59199999999998C66.32 115.632 15.999999999999986 164.39999999999998 15.999999999999986 231.968C15.999999999999986 344.144 126.17599999999999 432 266.832 432C406.608 432 512 346.016 512 232C512 121.88800000000003 416.688 47.91999999999996 274.832 47.91999999999996zM264 264C246.352 264 232 249.648 232 232S246.352 200 264 200S296 214.352 296 232S281.648 264 264 264zM264 216C255.184 216 248 223.168 248 232S255.184 248 264 248S280 240.832 280 232S272.816 216 264 216zM376 264C358.352 264 344 249.648 344 232S358.352 200 376 200S408 214.352 408 232S393.648 264 376 264zM376 216C367.184 216 360 223.168 360 232S367.184 248 376 248S392 240.832 392 232S384.816 216 376 216zM152 262.48C134.352 262.48 120 248.128 120 230.48S134.352 198.48 152 198.48S184 212.832 184 230.48S169.648 262.48 152 262.48zM152 214.48C143.184 214.48 136 221.648 136 230.48S143.184 246.48 152 246.48S168 239.31199999999998 168 230.48S160.816 214.48 152 214.48z" />
    <glyph glyph-name="check"
      unicode="&#xF11F;"
      horiz-adv-x="512" d=" M448 341.33333333333337Q457.1733333333333 341.33333333333337 463.25333333333333 335.25333333333333T469.3333333333333 320Q469.3333333333333 310.99733333333336 463.16799999999995 304.832L207.16799999999995 48.83200000000005Q201.00266666666664 42.666666666666686 191.99999999999994 42.666666666666686T176.83199999999994 48.83200000000005L48.83199999999995 176.83200000000005Q42.66666666666662 182.99733333333336 42.66666666666662 192.00000000000006Q42.66666666666662 201.17333333333337 48.74666666666662 207.2533333333334T63.99999999999995 213.33333333333337Q73.00266666666661 213.33333333333337 79.16799999999995 207.16800000000006L191.99999999999991 94.16533333333336L432.8319999999999 335.16800000000006Q438.99733333333324 341.33333333333337 447.99999999999983 341.33333333333337z" />
    <glyph glyph-name="checkbox-checked"
      unicode="&#xF120;"
      horiz-adv-x="512" d=" M448 448H64C28.799999999999997 448 0 419.2 0 384V0C0 -35.19999999999999 28.8 -64 64 -64H448C483.2 -64 512 -35.19999999999999 512 0V384C512 419.2 483.2 448 448 448zM224 50.75200000000001L105.376 169.37599999999998L150.624 214.62399999999997L224 141.24799999999993L377.376 294.6239999999999L422.62399999999997 249.37599999999995L223.99999999999997 50.75199999999995z" />
    <glyph glyph-name="checkbox-unchecked"
      unicode="&#xF121;"
      horiz-adv-x="512" d=" M448 448H64C28.799999999999997 448 0 419.2 0 384V0C0 -35.19999999999999 28.8 -64 64 -64H448C483.2 -64 512 -35.19999999999999 512 0V384C512 419.2 483.2 448 448 448zM448 0H64V384H448V0z" />
    <glyph glyph-name="checkmark"
      unicode="&#xF122;"
      horiz-adv-x="512" d=" M432 384L192 144L80 256L0 176L192 -16L512 304z" />
    <glyph glyph-name="checkmark2"
      unicode="&#xF123;"
      horiz-adv-x="512" d=" M198.72 -10.848000000000013L-0.2079999999999984 184.95999999999998L98.48 282.096L198.72 183.42399999999998L413.536 394.84799999999996L512.224 297.712L198.72000000000003 -10.848000000000013zM53.952 184.94400000000002L198.72 42.464000000000055L458.048 297.71200000000005L413.536 341.53600000000006L198.72 130.11200000000002L98.48 228.78400000000002L53.968 184.96000000000004z" />
    <glyph glyph-name="circle-check"
      unicode="&#xF124;"
      horiz-adv-x="512" d=" M256 426.6666666666667Q303.82933333333335 426.6666666666667 347.24266666666665 408.0853333333333T422.08 358.08000000000004T472.0853333333333 283.24266666666665T490.66666666666663 192T472.0853333333333 100.75733333333335T422.08 25.920000000000016T347.24266666666665 -24.085333333333324T256 -42.66666666666663T164.75733333333332 -24.085333333333324T89.91999999999999 25.920000000000016T39.91466666666666 100.75733333333335T21.333333333333332 192T39.91466666666666 283.24266666666665T89.91999999999999 358.08000000000004T164.75733333333332 408.0853333333333T256 426.6666666666667zM256 384Q217.00266666666667 384 181.41866666666664 368.74666666666667T120.17066666666665 327.82933333333335T79.2533333333333 266.58133333333336T63.99999999999998 192T79.2533333333333 117.4186666666667T120.17066666666665 56.17066666666665T181.41866666666664 15.25333333333333T256 0T330.5813333333333 15.25333333333333T391.82933333333335 56.17066666666665T432.74666666666667 117.4186666666667T448 192T432.74666666666667 266.58133333333336T391.82933333333335 327.82933333333335T330.5813333333333 368.74666666666667T256 384zM327.82933333333335 256.17066666666665Q336.66133333333335 256.17066666666665 342.91200000000003 249.92000000000002T349.16266666666667 234.83733333333333T342.82666666666665 219.66933333333333L252.33066666666664 129.17333333333335Q246.1653333333333 123.00800000000004 237.33333333333331 123.00800000000004Q228.33066666666664 123.00800000000004 222.1653333333333 129.17333333333335L176.832 174.336Q170.66666666666666 180.50133333333338 170.66666666666666 189.50400000000002Q170.66666666666666 198.336 176.91733333333332 204.5866666666667T192 210.83733333333336T207.168 204.50133333333335L237.33333333333331 174.336L312.66133333333335 249.8346666666667Q318.99733333333336 256.1706666666667 327.82933333333335 256.1706666666667z" />
    <glyph glyph-name="circle-cross"
      unicode="&#xF125;"
      horiz-adv-x="512" d=" M256 426.6666666666667Q303.82933333333335 426.6666666666667 347.24266666666665 408.0853333333333T422.08 358.08000000000004T472.0853333333333 283.24266666666665T490.66666666666663 192T472.0853333333333 100.75733333333335T422.08 25.920000000000016T347.24266666666665 -24.085333333333324T256 -42.66666666666663T164.75733333333332 -24.085333333333324T89.91999999999999 25.920000000000016T39.91466666666666 100.75733333333335T21.333333333333332 192T39.91466666666666 283.24266666666665T89.91999999999999 358.08000000000004T164.75733333333332 408.0853333333333T256 426.6666666666667zM256 384Q217.00266666666667 384 181.41866666666664 368.74666666666667T120.17066666666665 327.82933333333335T79.2533333333333 266.58133333333336T63.99999999999998 192T79.2533333333333 117.4186666666667T120.17066666666665 56.17066666666665T181.41866666666664 15.25333333333333T256 0T330.5813333333333 15.25333333333333T391.82933333333335 56.17066666666665T432.74666666666667 117.4186666666667T448 192T432.74666666666667 266.58133333333336T391.82933333333335 327.82933333333335T330.5813333333333 368.74666666666667T256 384zM316.3306666666666 273.8346666666667Q325.1626666666666 273.8346666666667 331.4986666666666 267.58400000000006T337.83466666666664 252.50133333333335T331.4986666666666 237.33333333333334L286.1653333333333 192L331.4986666666666 146.83733333333333Q337.83466666666664 140.50133333333332 337.83466666666664 131.84000000000003Q337.83466666666664 123.00800000000004 331.4986666666666 116.75733333333335T316.3306666666666 110.50666666666666T301.3333333333333 116.67200000000003L256 161.83466666666664L210.8373333333333 116.67199999999997Q204.67199999999997 110.50666666666666 195.6693333333333 110.50666666666666Q186.8373333333333 110.50666666666666 180.58666666666662 116.67199999999997T174.33599999999996 131.66933333333327Q174.33599999999996 140.67199999999997 180.5013333333333 146.83733333333328L225.83466666666664 191.99999999999994L180.5013333333333 237.33333333333326Q174.33599999999996 243.4986666666666 174.33599999999996 252.3306666666666T180.58666666666662 267.4986666666666T195.6693333333333 273.83466666666664T210.8373333333333 267.4986666666666L256 222.16533333333325L301.3333333333333 267.4986666666666Q307.6693333333333 273.83466666666664 316.3306666666666 273.83466666666664z" />
    <glyph glyph-name="circle-minus"
      unicode="&#xF126;"
      horiz-adv-x="512" d=" M256 426.6666666666667Q303.82933333333335 426.6666666666667 347.24266666666665 408.0853333333333T422.08 358.08000000000004T472.0853333333333 283.24266666666665T490.66666666666663 192T472.0853333333333 100.75733333333335T422.08 25.920000000000016T347.24266666666665 -24.085333333333324T256 -42.66666666666663T164.75733333333332 -24.085333333333324T89.91999999999999 25.920000000000016T39.91466666666666 100.75733333333335T21.333333333333332 192T39.91466666666666 283.24266666666665T89.91999999999999 358.08000000000004T164.75733333333332 408.0853333333333T256 426.6666666666667zM256 384Q217.00266666666667 384 181.41866666666664 368.74666666666667T120.17066666666665 327.82933333333335T79.2533333333333 266.58133333333336T63.99999999999998 192T79.2533333333333 117.4186666666667T120.17066666666665 56.17066666666665T181.41866666666664 15.25333333333333T256 0T330.5813333333333 15.25333333333333T391.82933333333335 56.17066666666665T432.74666666666667 117.4186666666667T448 192T432.74666666666667 266.58133333333336T391.82933333333335 327.82933333333335T330.5813333333333 368.74666666666667T256 384zM170.66666666666666 213.33333333333334H341.3333333333333Q350.16533333333336 213.33333333333334 356.416 207.08266666666668T362.66666666666663 192T356.416 176.91733333333332T341.3333333333333 170.66666666666669H170.66666666666666Q161.83466666666666 170.66666666666669 155.584 176.91733333333332T149.33333333333331 192T155.584 207.08266666666668T170.66666666666666 213.33333333333334z" />
    <glyph glyph-name="circle-plus"
      unicode="&#xF127;"
      horiz-adv-x="512" d=" M256 426.6666666666667Q303.82933333333335 426.6666666666667 347.24266666666665 408.0853333333333T422.08 358.08000000000004T472.0853333333333 283.24266666666665T490.66666666666663 192T472.0853333333333 100.75733333333335T422.08 25.920000000000016T347.24266666666665 -24.085333333333324T256 -42.66666666666663T164.75733333333332 -24.085333333333324T89.91999999999999 25.920000000000016T39.91466666666666 100.75733333333335T21.333333333333332 192T39.91466666666666 283.24266666666665T89.91999999999999 358.08000000000004T164.75733333333332 408.0853333333333T256 426.6666666666667zM256 384Q217.00266666666667 384 181.41866666666664 368.74666666666667T120.17066666666665 327.82933333333335T79.2533333333333 266.58133333333336T63.99999999999998 192T79.2533333333333 117.4186666666667T120.17066666666665 56.17066666666665T181.41866666666664 15.25333333333333T256 0T330.5813333333333 15.25333333333333T391.82933333333335 56.17066666666665T432.74666666666667 117.4186666666667T448 192T432.74666666666667 266.58133333333336T391.82933333333335 327.82933333333335T330.5813333333333 368.74666666666667T256 384zM256 298.6666666666667Q264.832 298.6666666666667 271.0826666666667 292.416T277.3333333333333 277.33333333333337V213.33333333333334H341.3333333333333Q350.16533333333336 213.33333333333334 356.416 207.08266666666668T362.66666666666663 192T356.416 176.91733333333332T341.3333333333333 170.66666666666669H277.3333333333333V106.66666666666669Q277.3333333333333 97.83466666666664 271.0826666666667 91.584T256 85.33333333333337T240.91733333333332 91.584T234.66666666666666 106.66666666666669V170.66666666666669H170.66666666666666Q161.83466666666666 170.66666666666669 155.584 176.91733333333332T149.33333333333331 192T155.584 207.08266666666668T170.66666666666666 213.33333333333334H234.66666666666666V277.33333333333337Q234.66666666666666 286.16533333333336 240.91733333333332 292.416T256 298.6666666666667z" />
    <glyph glyph-name="clip"
      unicode="&#xF128;"
      horiz-adv-x="512" d=" M469.808 373.808C526.064 317.584 526.064 226.40000000000003 469.808 170.176L294.336 -5.312000000000012C288.08000000000004 -11.584000000000003 277.968 -11.584000000000003 271.712 -5.312000000000012C265.424 0.94399999999996 265.424 11.039999999999964 271.712 17.312000000000012L444.928 190.54399999999998C488.672 234.28799999999998 488.672 305.168 444.896 348.928C401.216 392.67199999999997 330.27200000000005 392.67199999999997 286.528 348.928L55.37600000000003 120.49599999999998C24.128000000000032 89.26400000000001 24.128000000000032 38.60799999999995 55.37600000000003 7.375999999999976C86.62400000000004 -23.872000000000014 137.24800000000005 -23.872000000000014 168.49600000000004 7.375999999999976L401.93600000000004 238.04799999999997C420.65600000000006 256.768 420.65600000000006 287.216 401.93600000000004 305.936S352.78400000000005 324.64 334.064 305.936L158.56000000000003 130.43200000000002C152.30400000000003 124.17600000000004 142.19200000000004 124.17600000000004 135.93600000000004 130.43200000000002C129.68000000000004 136.704 129.68000000000004 146.8 135.93600000000004 153.072L311.42400000000004 328.56C342.64000000000004 359.79200000000003 393.29600000000005 359.79200000000003 424.54400000000004 328.56S455.79200000000003 246.672 424.54400000000004 215.424L191.10400000000004 -15.26400000000001C147.45600000000005 -58.928 76.40000000000005 -58.928 32.73600000000005 -15.26400000000001S-10.927999999999955 99.47199999999998 32.73600000000005 143.13599999999997L266.17600000000004 373.808C322.40000000000003 430.06399999999996 413.58400000000006 430.06399999999996 469.80800000000005 373.808z" />
    <glyph glyph-name="clipboard"
      unicode="&#xF129;"
      horiz-adv-x="512" d=" M464 384H320C320 419.344 291.344 448 256 448S192 419.344 192 384H48C39.168 384 32 376.832 32 368V-48C32 -56.831999999999994 39.168 -64 48 -64H464C472.832 -64 480 -56.831999999999994 480 -48V368C480 376.832 472.832 384 464 384zM256 416C273.68 416 288 401.68 288 384S273.68 352 256 352C238.32 352 224 366.32 224 384S238.32 416 256 416zM448 -32H64V352H128V304C128 295.168 135.168 288 144 288H368C376.832 288 384 295.168 384 304V352H448V-32z M224 18.75200000000001L121.376 137.37599999999998L150.624 166.62399999999997L224 109.24799999999999L361.376 230.624L390.64 201.376z" />
    <glyph glyph-name="clock"
      unicode="&#xF12A;"
      horiz-adv-x="512" d=" M256 426.6666666666667Q303.82933333333335 426.6666666666667 347.24266666666665 408.0853333333333T422.08 358.08000000000004T472.0853333333333 283.24266666666665T490.66666666666663 192T472.0853333333333 100.75733333333335T422.08 25.920000000000016T347.24266666666665 -24.085333333333324T256 -42.66666666666663T164.75733333333332 -24.085333333333324T89.91999999999999 25.920000000000016T39.91466666666666 100.75733333333335T21.333333333333332 192T39.91466666666666 283.24266666666665T89.91999999999999 358.08000000000004T164.75733333333332 408.0853333333333T256 426.6666666666667zM256 384Q217.00266666666667 384 181.41866666666664 368.74666666666667T120.17066666666665 327.82933333333335T79.2533333333333 266.58133333333336T63.99999999999998 192T79.2533333333333 117.4186666666667T120.17066666666665 56.17066666666665T181.41866666666664 15.25333333333333T256 0T330.5813333333333 15.25333333333333T391.82933333333335 56.17066666666665T432.74666666666667 117.4186666666667T448 192T432.74666666666667 266.58133333333336T391.82933333333335 327.82933333333335T330.5813333333333 368.74666666666667T256 384zM256 341.33333333333337Q264.832 341.33333333333337 271.0826666666667 335.0826666666667T277.3333333333333 320V200.832L335.168 143.168Q341.3333333333333 137.0026666666667 341.3333333333333 128T335.168 112.832T320 106.66666666666669T304.832 112.832L240.832 176.832Q234.66666666666666 182.99733333333336 234.66666666666666 192V320Q234.66666666666666 328.832 240.91733333333332 335.0826666666667T256 341.33333333333337z" />
    <glyph glyph-name="cloud-download"
      unicode="&#xF12B;"
      horiz-adv-x="512" d=" M320 405.3333333333333Q358.9973333333333 405.3333333333333 394.5813333333333 390.08T455.82933333333324 349.16266666666667T496.74666666666656 287.9146666666667T511.9999999999999 213.33333333333334Q511.9999999999999 170.83733333333333 494.50666666666655 132.99200000000002T446.1653333333332 68.41600000000005T376.17066666666653 29.674666666666724L386.6666666666666 40Q395.66933333333327 49.173333333333346 400.66133333333323 61.33333333333337Q405.33333333333326 72.66133333333335 405.33333333333326 85.99466666666666Q405.33333333333326 89.32266666666663 405.1626666666666 90.66666666666669Q434.8373333333332 111.33866666666665 452.07466666666653 143.57333333333338T469.33333333333326 213.33333333333334Q469.33333333333326 243.66933333333336 457.4933333333332 271.33866666666665T425.6639999999999 318.99733333333336T378.00533333333317 350.82666666666665T319.9999999999999 362.66666666666663Q292.3306666666665 362.66666666666663 266.75199999999984 352.74666666666667T221.75999999999988 325.824T189.2693333333332 285.16266666666667T172.3519999999999 234.66666666666669H128.02133333333325Q92.69333333333324 234.66666666666669 67.69066666666657 209.664T42.68799999999991 149.33333333333337Q42.68799999999991 130.00533333333334 50.26133333333324 113.49333333333334T70.18666666666658 86.40000000000003T97.59999999999991 69.9093333333334T128.02133333333325 64H153.0239999999999Q158.8479999999999 49.343999999999994 168.02133333333325 40L186.85866666666658 21.33333333333337H128.02133333333325Q93.18399999999993 21.33333333333337 63.76533333333326 38.50666666666666T17.17333333333326 85.0986666666667T-7.342274936187701e-14 149.35466666666673T17.17333333333326 213.6106666666667T63.76533333333326 260.20266666666674T128.02133333333325 277.3760000000001H139.02933333333326Q152.19199999999992 314.5386666666667 178.68799999999993 343.4666666666667T242.1119999999999 388.8853333333334T320.02133333333325 405.37600000000003zM277.3333333333333 234.66666666666669Q286.1653333333333 234.66666666666669 292.416 228.41600000000003T298.66666666666663 213.33333333333334V72.83200000000005L326.1653333333333 100.50133333333338Q332.3306666666666 106.66666666666674 341.3333333333333 106.66666666666674Q350.50666666666666 106.66666666666674 356.58666666666664 100.58666666666676T362.66666666666663 85.33333333333343Q362.66666666666663 76.33066666666673 356.50133333333326 70.16533333333348L292.50133333333326 6.1653333333334785Q286.33599999999996 1.1368683772161603e-13 277.33333333333326 1.1368683772161603e-13T262.16533333333325 6.1653333333334785L198.16533333333328 70.16533333333348Q191.99999999999994 76.67200000000014 191.99999999999994 85.33333333333343Q191.99999999999994 94.16533333333348 198.2506666666666 100.41600000000011T213.3333333333333 106.66666666666674Q222.33599999999996 106.66666666666674 228.5013333333333 100.50133333333338L255.99999999999994 72.83200000000005V213.33333333333337Q255.99999999999994 222.16533333333336 262.2506666666666 228.41600000000005T277.33333333333326 234.6666666666667z" />
    <glyph glyph-name="cloud-upload"
      unicode="&#xF12C;"
      horiz-adv-x="512" d=" M320 405.3333333333333Q358.9973333333333 405.3333333333333 394.5813333333333 390.08T455.82933333333324 349.16266666666667T496.74666666666656 287.9146666666667T511.9999999999999 213.33333333333334Q511.9999999999999 177.0026666666667 498.75199999999995 143.50933333333336T462.7413333333333 84.84266666666667T408.40533333333326 43.09333333333336T341.31199999999995 22.50666666666666V65.51466666666664Q377.15199999999993 70.67733333333331 406.3999999999999 91.43466666666666T452.4799999999999 144.27733333333333T469.31199999999995 213.35466666666662Q469.31199999999995 243.69066666666663 457.472 271.35999999999996T425.6426666666666 319.0186666666666T377.9839999999999 350.84799999999996T319.9786666666666 362.68799999999993Q292.30933333333326 362.68799999999993 266.7306666666666 352.7679999999999T221.73866666666657 325.8453333333333T189.24799999999993 285.18399999999997T172.33066666666662 234.68799999999996H127.99999999999996Q92.67199999999997 234.68799999999996 67.6693333333333 209.6853333333333T42.66666666666663 149.35466666666662Q42.66666666666663 130.02666666666664 50.23999999999997 113.51466666666664T70.16533333333331 86.42133333333334T97.57866666666663 69.93066666666664T127.99999999999997 64.0213333333333H213.33333333333331V21.354666666666617H128Q93.16266666666667 21.354666666666617 63.744 38.52799999999996T17.151999999999994 85.12T-0.02133333333333809 149.37599999999998T17.151999999999994 213.632T63.744 260.22400000000005T128 277.39733333333334H139.00799999999998Q152.17066666666665 314.56 178.66666666666666 343.488T242.09066666666664 388.90666666666664T320 405.39733333333334zM277.3333333333333 234.66666666666669Q286.1653333333333 234.66666666666669 292.5013333333333 228.33066666666667L356.50133333333326 164.33066666666667Q362.66666666666663 158.16533333333336 362.66666666666663 149.33333333333337Q362.66666666666663 140.16000000000003 356.58666666666664 134.08000000000004T341.3333333333333 128Q332.3306666666666 128 326.1653333333333 134.16533333333336L298.66666666666663 161.8346666666667V21.33333333333337Q298.66666666666663 12.50133333333332 292.416 6.250666666666689T277.3333333333333 0T262.25066666666663 6.250666666666689T256 21.33333333333337V161.8346666666667L228.50133333333332 134.16533333333336Q222.336 128 213.33333333333331 128Q204.50133333333332 128 198.25066666666663 134.2506666666667T192 149.33333333333337Q192 157.824 198.1653333333333 164.33066666666667L262.1653333333333 228.33066666666667Q268.5013333333333 234.66666666666669 277.3333333333333 234.66666666666669z" />
    <glyph glyph-name="command"
      unicode="&#xF12D;"
      horiz-adv-x="512" d=" M384 405.3333333333333Q419.328 405.3333333333333 444.3306666666666 380.3306666666667T469.3333333333333 320T444.3306666666666 259.6693333333334T384 234.66666666666669H341.3333333333333V149.33333333333337H384Q419.328 149.33333333333337 444.3306666666666 124.33066666666667T469.3333333333333 64T444.3306666666666 3.669333333333384T384 -21.333333333333314T323.6693333333333 3.669333333333384T298.66666666666663 64V106.66666666666669H213.33333333333331V64Q213.33333333333331 28.672000000000025 188.33066666666664 3.669333333333384T128 -21.333333333333314T67.66933333333333 3.669333333333384T42.666666666666664 64T67.66933333333333 124.33066666666667T128 149.33333333333337H170.66666666666666V234.66666666666669H128Q92.672 234.66666666666669 67.66933333333333 259.6693333333334T42.666666666666664 320T67.66933333333333 380.3306666666667T128 405.3333333333333T188.33066666666664 380.3306666666667T213.33333333333331 320V277.33333333333337H298.66666666666663V320Q298.66666666666663 355.328 323.6693333333333 380.3306666666667T384 405.3333333333333zM170.66666666666666 64V106.66666666666669H128Q110.33599999999998 106.66666666666669 97.83466666666666 94.16533333333336T85.33333333333333 64T97.83466666666666 33.834666666666635T128 21.33333333333337T158.1653333333333 33.834666666666635T170.66666666666666 64zM128 362.6666666666667Q110.33599999999998 362.6666666666667 97.83466666666666 350.16533333333336T85.33333333333333 320T97.83466666666666 289.8346666666667T128 277.33333333333337H170.66666666666666V320Q170.66666666666666 337.664 158.1653333333333 350.16533333333336T128 362.6666666666667zM298.66666666666663 149.33333333333337V234.66666666666669H213.33333333333331V149.33333333333337H298.66666666666663zM384 106.66666666666669H341.3333333333333V64Q341.3333333333333 46.33600000000001 353.83466666666664 33.834666666666635T384 21.33333333333337T414.16533333333336 33.834666666666635T426.66666666666663 64T414.16533333333336 94.16533333333336T384 106.66666666666674zM384 362.6666666666667Q366.336 362.6666666666667 353.83466666666664 350.16533333333336T341.33333333333326 320V277.33333333333337H384Q401.664 277.33333333333337 414.16533333333336 289.8346666666667T426.66666666666663 320T414.16533333333336 350.16533333333336T384 362.6666666666667z" />
    <glyph glyph-name="compass"
      unicode="&#xF12E;"
      horiz-adv-x="512" d=" M272 -64C270.848 -64 269.696 -63.872000000000014 268.528 -63.615999999999985C261.20000000000005 -61.98399999999998 256 -55.50399999999996 256 -48V192H16C8.496 192 2 197.216 0.38400000000000034 204.528S2.4480000000000004 219.328 9.232000000000001 222.49599999999998L489.232 446.496C495.32800000000003 449.344 502.56 448.06399999999996 507.312 443.31199999999995S513.344 431.328 510.49600000000004 425.23199999999997L286.49600000000004 -54.76800000000003C283.824 -60.49600000000004 278.112 -64 272.00000000000006 -64zM88.128 224H272C280.832 224 288 216.832 288 208V24.127999999999986L462.89599999999996 398.89599999999996L88.12799999999999 223.99999999999997z" />
    <glyph glyph-name="compass2"
      unicode="&#xF12F;"
      horiz-adv-x="512" d=" M256 448C114.608 448 0 333.392 0 192S114.608 -64 256 -64S512 50.608000000000004 512 192S397.392 448 256 448zM48 192C48 306.88 141.12 400 256 400C310.784 400 360.608 378.8 397.76 344.192L192 256L103.808 50.24000000000001C69.184 87.392 48.00000000000001 137.216 48.00000000000001 192zM292.576 155.42399999999998L164.52800000000002 100.54399999999998L219.40800000000002 228.59199999999998L292.576 155.42399999999998zM256 -16C201.216 -16 151.376 5.199999999999989 114.24000000000001 39.80799999999999L320 128L408.192 333.76C442.81600000000003 296.608 464 246.784 464 192C464 77.12 370.88 -16 256 -16z" />
    <glyph glyph-name="complex-actions"
      unicode="&#xF130;"
      horiz-adv-x="512" d=" M131.62496 86.61248L26.437119999999997 191.81056L131.62496 297.01120000000003L236.82816 191.81056L131.62496 86.61248zM51.33056 191.81056L131.6224 111.50847999999996L211.93216 191.81055999999995L131.62496 272.11519999999996L51.33056 191.81056z M382.03136 86.61248L276.84608000000003 191.81056L382.03136 297.01120000000003L487.23456 191.81056L382.03136 86.61248z M257.21856 213.16096000000002L152.0128 318.35392L257.216 423.55456L362.40384 318.35392L257.21856 213.16096000000002zM176.9088 318.35392L257.216 238.0544L337.50784 318.35392L257.216 398.65855999999997L176.9088 318.35392z M257.21856 -38.01344L152.0128 67.17951999999997L257.216 172.38271999999995L362.40384 67.17951999999997L257.21856 -38.01344zM176.9088 67.17951999999997L257.216 -13.117440000000045L337.50784 67.17951999999991L257.216 147.48671999999993L176.9088 67.17951999999997z" />
    <glyph glyph-name="complex-number-symbol-01"
      unicode="&#xF131;"
      horiz-adv-x="512" d=" M65.85600000000001 119.41375999999997V228.25472000000002H23.66208V253.90848000000003C29.57312 253.74976 35.2896 254.18496000000002 40.80384 255.22688000000002C46.31808 256.26368 51.26912 258.10432000000003 55.6672 260.74112C60.06016 263.37792 63.777280000000005 266.85440000000006 66.816 271.17056C69.8496 275.48672 71.84896 280.83712 72.80896000000001 287.23199999999997H99.89888V119.41119999999995H65.85600000000001z M154.06592 149.14047999999997C159.17824000000002 144.18432 166.53312000000003 141.70879999999994 176.12288 141.70879999999994C182.99392 141.70879999999994 188.90752 143.42656 193.86368000000002 146.86463999999995C198.81728000000004 150.30015999999995 201.85600000000002 153.93791999999996 202.97472000000002 157.77535999999998H232.94208000000003C228.14720000000003 142.90943999999996 220.79232000000005 132.27776 210.88512000000003 125.88799999999998C200.97280000000003 119.49311999999998 188.98688 116.29823999999991 174.92480000000003 116.29823999999991C165.17376000000004 116.29823999999991 156.38272000000003 117.85727999999995 148.55168000000003 120.97279999999989C140.71808000000004 124.09087999999991 134.08512000000002 128.5247999999999 128.6528 134.27967999999993C123.21792000000003 140.03199999999993 119.02208000000003 146.90303999999992 116.06528000000003 154.89791999999994C113.10592000000003 162.88767999999993 111.63136000000003 171.6812799999999 111.63136000000003 181.26847999999995C111.63136000000003 190.53567999999996 113.14944000000003 199.16799999999995 116.18560000000002 207.16031999999996C119.22176000000002 215.15263999999996 123.53536000000003 222.06207999999995 129.13152000000002 227.89887999999996C134.72512000000003 233.73055999999997 141.39648000000003 238.32831999999993 149.15072000000004 241.68447999999995C156.89984 245.04063999999997 165.49120000000002 246.71999999999997 174.92224000000002 246.71999999999997C185.472 246.71999999999997 194.65984 244.68223999999995 202.49344000000002 240.60671999999994C210.32192000000003 236.53119999999996 216.75776000000002 231.05535999999995 221.79328 224.18431999999993C226.8288 217.31071999999992 230.46144 209.47711999999993 232.70144000000002 200.68863999999994C234.93887999999998 191.89503999999994 235.73504000000003 182.70975999999996 235.10016 173.11743999999993H145.67424000000003C146.15296 162.08639999999997 148.94848 154.09152 154.06592 149.14047999999997zM192.54272 214.3488C188.46720000000002 218.82368000000002 182.26944 221.06368 173.96224000000004 221.06368C168.52736000000002 221.06368 164.01408000000004 220.14208000000002 160.41728000000003 218.30656000000002C156.82048000000003 216.46848 153.94560000000004 214.19008000000002 151.78752000000003 211.47392000000002C149.62944000000005 208.75520000000003 148.10880000000003 205.87776000000005 147.23072000000002 202.84416000000004C146.35008000000002 199.80544000000006 145.83040000000003 197.09184000000005 145.67424000000003 194.69312000000005H201.05472000000003C199.45472 203.32288 196.61824000000001 209.87392 192.54272 214.3488z M368.48384 192.77312V167.12192000000005H320.77568V119.41120000000001H295.12192V167.12192000000005H247.41376V192.77312H295.12448V240.48128H320.77824000000004V192.77056H368.48384z M375.36 249.472C377.91488 257.7024 381.74976000000004 264.89344 386.8672 271.05024000000003C391.97952000000004 277.19936 398.4128 281.99424 406.16704 285.43488C413.91615999999993 288.8704 422.82752 290.59072000000003 432.896 290.59072000000003C440.56831999999997 290.59072000000003 447.88224 289.39264000000003 454.83263999999997 286.99392S467.89888 281.15712 473.17247999999995 276.6848C478.44607999999994 272.20736000000005 482.64191999999997 266.69312 485.7574399999999 260.14208C488.8755199999999 253.58592000000004 490.4319999999999 246.23616 490.4319999999999 238.08512000000002C490.4319999999999 229.61152 489.07263999999986 222.34112000000002 486.35647999999986 216.27136000000002C483.63775999999984 210.19392000000002 480.0409599999998 204.80000000000004 475.5686399999999 200.08704C471.0911999999999 195.37152 466.0172799999999 191.09632 460.34431999999987 187.26144C454.66879999999986 183.42656 448.95743999999985 179.62752 443.2051199999999 175.87455999999997C437.4502399999999 172.11647999999997 431.8515199999999 168.08191999999997 426.42175999999984 163.76831999999996C420.98687999999987 159.45216 416.19199999999984 154.4192 412.03711999999985 148.66431999999998H491.3919999999998V119.41631999999998H368.1638399999998C368.1638399999998 129.16479999999996 369.5615999999998 137.63583999999997 372.35967999999986 144.82943999999998C375.1551999999999 152.02303999999998 378.95167999999984 158.45375999999993 383.7465599999999 164.12927999999994C388.54143999999985 169.79967999999997 394.17599999999993 175.03743999999995 400.65023999999994 179.83231999999998S413.9545599999999 189.49887999999993 421.1481599999999 194.45759999999993C424.82431999999994 197.01247999999995 428.73855999999995 199.61343999999994 432.8959999999999 202.24767999999995C437.0508799999999 204.88447999999997 440.8447999999999 207.80031999999994 444.2828799999999 211.00031999999996C447.7184 214.19519999999997 450.59583999999995 217.78943999999996 452.91263999999995 221.78815999999995C455.22687999999994 225.78175999999996 456.38912 230.33599999999996 456.38912 235.45343999999994C456.38912 243.60447999999994 454.0288 249.95839999999993 449.31584 254.51263999999995C444.60031999999995 259.06687999999997 438.56639999999993 261.34527999999995 431.21664 261.34527999999995C426.25791999999996 261.34527999999995 422.06464 260.18303999999995 418.62912 257.86879999999996C415.19104 255.54943999999992 412.43392 252.51327999999992 410.36032 248.75775999999993C408.28159999999997 244.99967999999993 406.79936000000004 240.84735999999992 405.9264 236.2905599999999C405.0432 231.73631999999995 404.60544000000004 227.21791999999994 404.60544000000004 222.74303999999992H372.00128000000007C371.68127999999996 232.33024 372.8 241.23904 375.36 249.472z" />
    <glyph glyph-name="copy"
      unicode="&#xF132;"
      horiz-adv-x="512" d=" M320 320V448H96L0 352V64H192V-64H512V320H320zM96 402.752V352H45.248L96 402.752zM32 96V320H128V416H288V320L192 224V96H32zM288 274.752V224H237.248L288 274.752zM480 -32H224V192H320V288H480V-32z" />
    <glyph glyph-name="cross"
      unicode="&#xF133;"
      horiz-adv-x="512" d=" M405.3333333333333 362.6666666666667Q414.50666666666666 362.6666666666667 420.58666666666664 356.5866666666667T426.66666666666663 341.33333333333337Q426.66666666666663 332.3306666666667 420.50133333333326 326.16533333333336L286.16533333333325 192L420.50133333333326 57.834666666666635Q426.66666666666663 51.66933333333327 426.66666666666663 42.666666666666686Q426.66666666666663 33.49333333333334 420.58666666666664 27.413333333333355T405.3333333333333 21.33333333333337Q396.3306666666666 21.33333333333337 390.16533333333336 27.498666666666736L256 161.83466666666675L121.8346666666667 27.498666666666736Q115.66933333333338 21.33333333333337 106.6666666666667 21.33333333333337Q97.49333333333337 21.33333333333337 91.41333333333337 27.413333333333355T85.33333333333337 42.666666666666686Q85.33333333333337 51.669333333333384 91.4986666666667 57.834666666666635L225.8346666666667 192L91.49866666666671 326.1653333333333Q85.33333333333339 332.3306666666666 85.33333333333339 341.3333333333333Q85.33333333333339 350.50666666666666 91.41333333333338 356.58666666666664T106.66666666666671 362.66666666666663Q115.66933333333338 362.66666666666663 121.83466666666672 356.5013333333333L256.00000000000006 222.1653333333333L390.16533333333336 356.50133333333326Q396.33066666666673 362.66666666666663 405.3333333333333 362.66666666666663z" />
    <glyph glyph-name="data"
      unicode="&#xF134;"
      horiz-adv-x="512" d=" M256 448C148.096 448 32 415.472 32 344V40C32 -31.439999999999998 148.096 -64 256 -64S480 -31.439999999999998 480 40V344C480 415.472 363.872 448 256 448zM448 40C448 0.2559999999999718 362.032 -32 256 -32C149.952 -32 64 0.2559999999999718 64 40V99.77600000000001C97.056 65.71199999999999 176.8 48 256 48S414.94399999999996 65.71199999999999 448 99.77600000000001V40zM448 136H447.936C447.936 135.83999999999997 448 135.664 448 135.50400000000002C448 96 362.032 64 256 64S64 96 64 135.50400000000002C64 135.66400000000004 64.064 135.84000000000003 64.064 136H63.99999999999999V195.776C97.05599999999998 161.712 176.79999999999998 144 256 144S414.94399999999996 161.712 448 195.776V136zM448 232H447.936C447.936 231.84 448 231.664 448 231.504C448 192 362.032 160 256 160S64 192 64 231.50400000000002C64 231.66400000000002 64.064 231.84000000000003 64.064 232.00000000000003H63.99999999999999V286.976C105.93599999999999 255.02400000000003 182.79999999999998 240.00000000000003 256 240.00000000000003S406.06399999999996 255.02400000000003 448 286.976V232.00000000000003zM256 272C149.952 272 64 304.256 64 344C64 383.776 149.952 416 256 416C362.032 416 448 383.776 448 344C448 304.256 362.032 272 256 272zM384 32C384 40.831999999999994 391.168 48 400 48S416 40.831999999999994 416 32C416 23.168000000000006 408.832 16 400 16S384 23.168000000000006 384 32zM384 128C384 136.832 391.168 144 400 144S416 136.832 416 128C416 119.168 408.832 112 400 112S384 119.168 384 128zM384 224C384 232.832 391.168 240 400 240S416 232.832 416 224C416 215.168 408.832 208 400 208S384 215.168 384 224z" />
    <glyph glyph-name="delete"
      unicode="&#xF135;"
      horiz-adv-x="512" d=" M170.66666666666666 384H448Q474.496 384 493.24799999999993 365.248T512 320V64Q512 37.50400000000002 493.24799999999993 18.752000000000066T448 0H170.66666666666666L0 192zM448 341.33333333333337H189.82399999999998L57.15199999999999 192L189.82399999999998 42.666666666666686H448Q456.832 42.666666666666686 463.0826666666667 48.91733333333332T469.3333333333333 64V320Q469.3333333333333 328.832 463.0826666666667 335.0826666666667T448 341.33333333333337zM405.3333333333333 256Q405.3333333333333 246.99733333333333 399.16799999999995 240.832L350.16533333333325 192L399.16799999999995 143.168Q405.3333333333333 137.0026666666667 405.3333333333333 128Q405.3333333333333 118.82666666666671 399.25333333333333 112.74666666666667T384 106.66666666666669Q374.9973333333333 106.66666666666669 368.832 112.832L320 161.8346666666667L271.168 112.832Q265.0026666666667 106.66666666666669 256 106.66666666666669Q247.16800000000003 106.66666666666669 240.91733333333335 112.91733333333332T234.66666666666669 128Q234.66666666666669 136.66133333333335 240.83200000000002 143.168L289.8346666666667 192L240.83200000000002 240.832Q234.66666666666669 247.33866666666665 234.66666666666669 256Q234.66666666666669 264.832 240.91733333333335 271.0826666666667T256 277.33333333333337Q265.0026666666667 277.33333333333337 271.168 271.168L320 222.16533333333334L368.832 271.168Q374.99733333333336 277.33333333333337 384 277.33333333333337Q393.1733333333333 277.33333333333337 399.25333333333333 271.25333333333333T405.3333333333333 256z" />
    <glyph glyph-name="down"
      unicode="&#xF136;"
      horiz-adv-x="512" d=" M254.63296 104.09728000000001L124.224 234.50624C120.22528 238.50752 120.22528 244.98944 124.224 248.98816C128.22528 252.98687999999999 134.70976 252.98432 138.70592000000002 248.98816L254.63296000000003 133.06112000000002L371.42784 249.856C375.42400000000004 253.85472 381.90848 253.85472 385.90720000000005 249.856C389.90848 245.85472 389.90848 239.37279999999998 385.90720000000005 235.37408L254.63296 104.09728000000001z M255.98208 401.92C371.74271999999996 401.92 465.92 307.75808 465.92 192.01792C465.92 76.25728000000004 371.74271999999996 -17.920000000000016 255.98208 -17.920000000000016C140.24192 -17.920000000000016 46.08 76.25728000000004 46.08 192.01792C46.08 307.75808 140.24192 401.92 255.98208 401.92M255.98208 422.4C128.7296 422.4 25.6 319.2704 25.6 192.01792S128.7296 -38.400000000000034 255.98208 -38.400000000000034S486.40000000000003 64.76544000000001 486.40000000000003 192.01792S383.23456 422.4 255.98208 422.4L255.98208 422.4z" />
    <glyph glyph-name="download"
      unicode="&#xF137;"
      horiz-adv-x="512" d=" M320 362.6666666666667H405.3333333333333Q431.82933333333335 362.6666666666667 450.5813333333333 343.9146666666667T469.3333333333333 298.6666666666667V0Q469.3333333333333 -26.49599999999998 450.5813333333333 -45.247999999999934T405.3333333333333 -64H106.66666666666666Q80.17066666666666 -64 61.41866666666667 -45.247999999999934T42.666666666666664 0V298.6666666666667Q42.666666666666664 325.16266666666667 61.41866666666667 343.9146666666667T106.66666666666666 362.6666666666667H192V320H106.66666666666666Q97.83466666666666 320 91.584 313.7493333333333T85.33333333333333 298.6666666666667V0Q85.33333333333333 -8.831999999999994 91.584 -15.082666666666682T106.66666666666666 -21.333333333333314H405.3333333333333Q414.16533333333336 -21.333333333333314 420.416 -15.082666666666682T426.66666666666663 0V298.6666666666667Q426.66666666666663 307.4986666666667 420.416 313.7493333333333T405.3333333333333 320H320V362.6666666666667zM256 448Q264.832 448 271.0826666666667 441.7493333333333T277.3333333333333 426.6666666666667V158.16533333333336L326.1653333333333 207.168Q332.3306666666666 213.33333333333334 341.3333333333333 213.33333333333334Q350.50666666666666 213.33333333333334 356.58666666666664 207.25333333333333T362.66666666666663 192Q362.66666666666663 182.99733333333336 356.50133333333326 176.832L271.16799999999995 91.49866666666674Q265.00266666666664 85.33333333333337 255.99999999999994 85.33333333333337T240.83199999999994 91.49866666666674L155.49866666666662 176.83200000000005Q149.3333333333333 183.3386666666667 149.3333333333333 192.00000000000006Q149.3333333333333 200.83200000000005 155.58399999999995 207.08266666666674T170.66666666666663 213.33333333333337Q179.6693333333333 213.33333333333337 185.83466666666664 207.16800000000006L234.66666666666663 158.16533333333336V426.6666666666667Q234.66666666666663 435.4986666666667 240.91733333333326 441.74933333333337T255.99999999999994 448.00000000000006z" />
    <glyph glyph-name="drafts"
      unicode="&#xF138;"
      horiz-adv-x="512" d=" M345.6 33.587199999999996C345.6 22.983332803248743 354.19613280324876 14.387200000000007 364.8 14.387200000000007C375.40386719675126 14.387200000000007 384 22.983332803248743 384 33.587199999999996C384 44.19106719675125 375.40386719675126 52.787199999999984 364.8 52.787199999999984C354.19613280324876 52.787199999999984 345.6 44.19106719675125 345.6 33.587199999999996z M288 33.587199999999996C288 22.983332803248743 296.5961328032488 14.387200000000007 307.2 14.387200000000007C317.80386719675124 14.387200000000007 326.40000000000003 22.983332803248743 326.40000000000003 33.587199999999996C326.40000000000003 44.19106719675125 317.80386719675124 52.787199999999984 307.2 52.787199999999984C296.5961328032488 52.787199999999984 288 44.19106719675125 288 33.587199999999996z M230.4 33.587199999999996C230.4 22.983332803248743 238.99613280324877 14.387200000000007 249.6 14.387200000000007C260.2038671967512 14.387200000000007 268.8 22.983332803248743 268.8 33.587199999999996C268.8 44.19106719675125 260.2038671967512 52.787199999999984 249.6 52.787199999999984C238.99613280324877 52.787199999999984 230.4 44.19106719675125 230.4 33.587199999999996z M419.84000000000003 401.92V-17.920000000000016H79.36V295.78752L203.94752 296.10496L204.62848000000002 401.92H419.84000000000003M440.32 422.4H197.12L58.88 305.28V-38.400000000000034H440.32V422.4L440.32 422.4z" />
    <glyph glyph-name="edit-form-01"
      unicode="&#xF139;"
      horiz-adv-x="512" d=" M469.7472 405.21728C461.2992 415.50336 450.08896000000004 420.95104 437.37088000000006 420.95104C421.98528000000005 420.95104 409.65632000000005 412.88192 408.30208000000005 411.97056L326.2080000000001 330.00448H31.178240000000002V-41.502719999999954H402.69568V275.72479999999996L468.81023999999996 341.08416L470.21824000000004 342.72767999999996C478.48192000000006 354.07872 489.01376 381.75488 469.7472 405.21728zM376 -14.807039999999972H57.87136V303.30624H299.48416L157.99551999999997 161.99936000000002V103.62880000000001H228.55424L376 249.34144000000003V-14.807039999999972zM449.12384 359.14752L217.57696 130.32448H184.69119999999998V150.94783999999999L424.09984 390.35648000000003C426.13248 391.49056 431.63136 394.2528 437.37087999999994 394.2528C442.0352 394.2528 445.76255999999995 392.35072 449.1264 388.26752C458.90304 376.35584 451.3664 362.66751999999997 449.12384 359.14752z" />
    <glyph glyph-name="edit-form-full"
      unicode="&#xF13A;"
      horiz-adv-x="512" d=" M428.20864 411.96288L178.83648000000002 162.58303999999998V110.33599999999996H221.58848000000003L474.91839999999996 363.67104C474.91839999999996 363.67104 492.33664 392.17152 474.91839999999996 411.96288C457.49760000000003 431.75168 428.20864 411.96288 428.20864 411.96288z M403.66591999999997 257.37216L403.66591999999997 -36.91519999999997L26.83648 -36.91519999999997L26.83648 338.33472L322.9184 338.33472L162.21184 177.62560000000002L162.21184 92.70783999999998L240.58624 92.70783999999998z" />
    <glyph glyph-name="edit"
      unicode="&#xF13B;"
      horiz-adv-x="512" d=" M467.52768 403.94496C459.16159999999996 414.11584 448.08704 419.51232 435.49183999999997 419.51232C420.23423999999994 419.51232 408.0256 411.53535999999997 406.68159999999995 410.63168L325.42208 329.472H33.28V-38.400000000000034H401.13408000000004V275.72736L466.62144 340.4416L468.01664 342.06719999999996C476.20096 353.29792 486.60224000000005 380.71296 467.52768 403.94496zM381.44 -17.088000000000022H54.60224L53.76 310.9376H306.86464L158.84544 163.12576V105.32864000000001H228.72064L381.26592 256.17152L381.44 -17.088000000000022zM450.56 354.24L220.48000000000002 125.80864000000003L179.61216000000002 126.09535999999997L179.53536 155.51999999999998L418.89792 392.65792C420.91264 393.76896 434.41664000000003 399.8592 447.1091200000001 387.16416000000004C460.81536 373.45536 452.77952 357.72416 450.56 354.24z" />
    <glyph glyph-name="ellipsis"
      unicode="&#xF13C;"
      horiz-adv-x="512" d=" M426.66666666666663 256Q453.16266666666667 256 471.9146666666666 237.24800000000002T490.66666666666663 192T471.9146666666666 146.752T426.66666666666663 128T381.4186666666667 146.752T362.66666666666663 192T381.4186666666667 237.24800000000002T426.66666666666663 256zM85.33333333333333 256Q111.82933333333332 256 130.58133333333333 237.24800000000002T149.33333333333331 192T130.58133333333333 146.752T85.33333333333333 128T40.08533333333333 146.752T21.333333333333332 192T40.08533333333333 237.24800000000002T85.33333333333333 256zM85.33333333333333 213.33333333333334Q76.50133333333332 213.33333333333334 70.25066666666666 207.08266666666668T64 192T70.25066666666666 176.91733333333332T85.33333333333333 170.66666666666669T100.416 176.91733333333332T106.66666666666666 192T100.416 207.08266666666668T85.33333333333333 213.33333333333334zM256 256Q282.496 256 301.248 237.24800000000002T320 192T301.248 146.752T256 128T210.75199999999998 146.752T192 192T210.75199999999998 237.24800000000002T256 256zM256 213.33333333333334Q247.168 213.33333333333334 240.91733333333332 207.08266666666668T234.66666666666666 192T240.91733333333332 176.91733333333332T256 170.66666666666669T271.0826666666667 176.91733333333332T277.3333333333333 192T271.0826666666667 207.08266666666668T256 213.33333333333334zM426.66666666666663 213.33333333333334Q417.83466666666664 213.33333333333334 411.58399999999995 207.08266666666668T405.3333333333333 192T411.58399999999995 176.91733333333332T426.66666666666663 170.66666666666669T441.7493333333333 176.91733333333332T448 192T441.7493333333333 207.08266666666668T426.66666666666663 213.33333333333334z" />
    <glyph glyph-name="esc"
      unicode="&#xF13D;"
      horiz-adv-x="512" d=" M279.5093333333333 425.49333333333334Q322.66666666666663 421.16266666666667 361.4293333333333 401.664T429.50399999999996 349.9946666666667Q458.34666666666664 318.336 474.34666666666664 278.16533333333336Q490.68799999999993 236.67200000000003 490.68799999999993 192Q490.68799999999993 144.17066666666665 472.1919999999999 100.67200000000003Q455.0186666666666 59.498666666666736 422.0159999999999 26.005333333333397Q388.52266666666657 -6.997333333333302 347.3493333333332 -24.170666666666648Q303.8506666666666 -42.66666666666663 256.02133333333325 -42.66666666666663Q211.34933333333328 -42.66666666666663 169.85599999999994 -26.325333333333333Q129.6853333333333 -10.325333333333333 98.02666666666661 18.51733333333334Q65.85599999999995 47.850666666666655 46.35733333333329 86.59199999999998T22.527999999999953 168.51199999999994Q21.695999999999955 178.00533333333328 27.94666666666662 185.00266666666664T43.861333333333285 191.99999999999994Q52.031999999999954 191.99999999999994 58.11199999999995 186.49599999999998T65.02399999999994 172.8213333333333Q68.52266666666662 137.32266666666663 84.43733333333329 105.66399999999993T126.84799999999996 50.005333333333226Q152.68266666666662 26.175999999999874 185.5146666666666 13.3333333333332Q219.51999999999992 -1.1368683772161603e-13 256.02133333333325 -1.1368683772161603e-13Q295.18933333333325 -1.1368683772161603e-13 330.68799999999993 14.997333333333188Q364.3519999999999 29.162666666666553 391.8506666666666 56.170666666666534Q418.85866666666664 83.66933333333321 433.02399999999994 117.3333333333332Q448.02133333333325 152.83199999999988 448.02133333333325 191.9999999999999Q448.02133333333325 228.5013333333332 434.68799999999993 262.50666666666655Q421.84533333333326 295.33866666666654 398.0159999999999 321.1733333333332Q374.0159999999999 347.66933333333316 342.3573333333332 363.58399999999983T275.1999999999999 382.9973333333332Q267.0293333333332 383.8293333333332 261.5253333333332 389.90933333333317T256.0213333333332 404.15999999999985Q256.0213333333332 410.49599999999987 258.43199999999985 414.9973333333332T264.8533333333332 421.6533333333332T272.4266666666665 424.6613333333332T279.5093333333332 425.49333333333317zM42.666666666666664 426.6666666666667H170.66666666666666Q179.49866666666665 426.6666666666667 185.74933333333334 420.416T192 405.3333333333333T185.74933333333334 390.2506666666667T170.66666666666666 384H94.16533333333332L271.168 206.99733333333333Q277.3333333333333 201.00266666666664 277.3333333333333 192Q277.3333333333333 182.8266666666667 271.25333333333333 176.74666666666667T256 170.66666666666669Q246.9973333333333 170.66666666666669 240.832 176.832L64 353.8346666666667V277.33333333333337Q64 268.5013333333334 57.749333333333325 262.2506666666667T42.666666666666664 256T27.584000000000003 262.2506666666667T21.333333333333336 277.33333333333337V405.3333333333333Q21.333333333333336 414.16533333333336 27.584000000000003 420.416T42.666666666666664 426.6666666666667z" />
    <glyph glyph-name="execute-order-66-01"
      unicode="&#xF13E;"
      horiz-adv-x="512" d=" M403.83488 404.14207999999996C441.2672 404.14207999999996 471.72352 373.68575999999996 471.72352 336.24832V46.581759999999974C471.72352 9.141759999999977 441.26975999999996 -21.31455999999997 403.83488 -21.31455999999997H114.16575999999999C76.72831999999998 -21.31455999999997 46.27199999999999 9.141759999999977 46.27199999999999 46.581759999999974V336.25088C46.27199999999999 373.68832 76.72831999999998 404.14464 114.16575999999999 404.14464H403.83488M403.83488 424.62208H114.16575999999999C65.35936 424.62208 25.79199999999999 385.05472 25.79199999999999 336.24832000000004V46.581759999999974C25.79199999999999 -2.227200000000039 65.35936 -41.79455999999999 114.16575999999999 -41.79455999999999H403.83488C452.6336 -41.79455999999999 492.20352 -2.227200000000039 492.20352 46.581759999999974V336.25088C492.20352 385.05472 452.63616 424.62208 403.83488 424.62208L403.83488 424.62208z M199.85152 267.48928C194.19647999999998 267.48928 189.61151999999998 262.90432 189.61151999999998 257.24928S194.19647999999998 247.00928 199.85152 247.00928H300.1088L185.92511999999996 132.81792000000002C181.92639999999997 128.81920000000002 181.92639999999997 122.33472 185.92511999999996 118.33855999999997C187.92447999999996 116.33919999999995 190.54335999999995 115.33823999999998 193.16479999999996 115.33823999999998S198.40511999999995 116.33919999999995 200.40703999999994 118.33855999999997L314.5881599999999 232.53248V141.21727999999996C314.5881599999999 135.56223999999997 319.1731199999999 130.97728 324.8281599999999 130.97728S335.0681599999999 135.56223999999997 335.0681599999999 141.21727999999996V267.48928H199.85152z" />
    <glyph glyph-name="expand"
      unicode="&#xF13F;"
      horiz-adv-x="512" d=" M512 -40V424C512 437.23199999999997 501.23199999999997 448 488 448H24C10.768 448 0 437.23199999999997 0 424V280C0 275.584 3.584 272 8 272S16 275.584 16 280V424C16 428.416 19.6 432 24 432H488C492.4 432 496 428.416 496 424V-40C496 -44.416 492.4 -48 488 -48H344C339.584 -48 336 -51.584 336 -56S339.584 -64 344 -64H488C501.23199999999997 -64 512 -53.23199999999997 512 -40zM24 240C10.768 240 0 229.232 0 216V-40C0 -53.23199999999997 10.768 -64 24 -64H280C293.23199999999997 -64 304 -53.23199999999997 304 -40V228.688L416 340.688V232C416 227.584 419.584 224 424 224S432 227.584 432 232V360C432 364.416 428.416 368 424 368H296C291.584 368 288 364.416 288 360S291.584 352 296 352H404.672L292.672 240H24zM288 -40C288 -44.416 284.4 -48 280 -48H24C19.6 -48 16 -44.416 16 -40V216C16 220.416 19.6 224 24 224H288V-40z" />
    <glyph glyph-name="eye"
      unicode="&#xF140;"
      horiz-adv-x="512" d=" M256 384Q290.8373333333333 384 323.75466666666665 373.4186666666667T381.50399999999996 345.92T428.2453333333333 308.5013333333334T465.08799999999997 267.4986666666667T490.9226666666666 230.08T507.0079999999999 202.66666666666669L512 192Q510.82666666666665 189.50400000000002 508.8426666666667 185.25866666666667T499.43466666666666 167.91466666666668T483.6053333333333 142.07999999999998T461.43999999999994 112.08533333333332T433.02399999999994 79.91466666666668T398.27199999999993 49.834666666666635T357.0986666666666 24.085333333333324T309.6746666666666 6.74133333333333T255.99999999999994 0Q221.1626666666666 0 188.2453333333333 10.581333333333305T130.49599999999995 37.99466666666666T83.75466666666662 75.15733333333333T46.911999999999956 115.904T21.07733333333329 153.15200000000004T4.9919999999999565 180.65066666666667L-4.322468309207276e-14 191.1466666666667Q1.17333333333329 193.6426666666667 3.15733333333329 197.88800000000003T12.565333333333289 215.29600000000005T28.394666666666623 241.21600000000007T50.55999999999995 271.3813333333334T78.97599999999996 303.7226666666667T113.72799999999995 333.88800000000003T154.90133333333327 359.80800000000005T202.32533333333328 377.216T255.99999999999994 383.9573333333334zM256 341.33333333333337Q232.66133333333335 341.33333333333337 210.176 335.168T169.6 319.25333333333333T134.272 295.68T104.44800000000001 268.43733333333336T80.02133333333335 239.59466666666668T61.18400000000001 213.18400000000003T48.021333333333345 191.18933333333337Q54.18666666666668 180.35200000000003 61.18400000000001 169.42933333333337T80.02133333333335 143.25333333333333T104.44800000000001 114.75200000000001T134.272 87.82933333333335T169.6 64.4906666666667T210.176 48.74666666666667T256 42.666666666666686T301.82399999999996 48.83200000000005T342.4 64.6613333333334T377.72799999999995 88.08533333333338T407.55199999999996 115.17866666666669T431.97866666666664 143.8506666666667T450.8159999999999 170.17600000000004T463.97866666666664 192Q457.8133333333333 202.83733333333333 450.8159999999999 213.824T431.97866666666664 240.14933333333335T407.55199999999996 268.8213333333333T377.72799999999995 295.9146666666667T342.4 319.33866666666665T301.824 335.168T256 341.3333333333333zM256 277.33333333333337Q291.328 277.33333333333337 316.3306666666666 252.33066666666667T341.3333333333333 192T316.3306666666666 131.66933333333338T256 106.66666666666669T195.66933333333333 131.66933333333338T170.66666666666666 192T195.66933333333333 252.33066666666667T256 277.33333333333337zM256 234.66666666666669Q238.336 234.66666666666669 225.83466666666666 222.16533333333334T213.33333333333331 192T225.83466666666666 161.8346666666667T256 149.33333333333337T286.1653333333333 161.8346666666667T298.66666666666663 192T286.1653333333333 222.16533333333334T256 234.66666666666669z" />
    <glyph glyph-name="fast-forward"
      unicode="&#xF141;"
      horiz-adv-x="512" d=" M234.66666666666666 362.6666666666667Q243.49866666666665 362.6666666666667 249.664 356.5013333333334L398.9973333333333 207.168Q405.3333333333333 200.832 405.3333333333333 192T398.9973333333333 176.832L249.664 27.498666666666736Q243.49866666666665 21.33333333333337 234.66666666666666 21.33333333333337T219.58399999999997 27.584000000000003T213.33333333333331 42.666666666666686Q213.33333333333331 51.669333333333384 219.49866666666665 57.834666666666635L353.664 192L219.49866666666665 326.1653333333333Q213.33333333333331 332.3306666666666 213.33333333333331 341.3333333333333Q213.33333333333331 350.50666666666666 219.41333333333333 356.58666666666664T234.66666666666666 362.66666666666663zM106.66666666666666 362.6666666666667Q115.49866666666665 362.6666666666667 121.664 356.5013333333334L270.9973333333333 207.168Q277.3333333333333 200.832 277.3333333333333 192T270.9973333333333 176.832L121.66399999999999 27.498666666666736Q115.49866666666665 21.33333333333337 106.66666666666664 21.33333333333337T91.58399999999997 27.584000000000003T85.33333333333331 42.666666666666686Q85.33333333333331 51.669333333333384 91.49866666666664 57.834666666666635L225.664 192L91.49866666666665 326.1653333333333Q85.33333333333331 332.3306666666666 85.33333333333331 341.3333333333333Q85.33333333333331 350.50666666666666 91.41333333333331 356.58666666666664T106.66666666666664 362.66666666666663z" />
    </font>
</defs>
</svg>
